<svg width="456" height="124" version="1.1" xmlns="http://www.w3.org/2000/svg" desc="Created with imagetracer.js version 1.2.6" ><path fill="rgb(254,254,255)" stroke="rgb(254,254,255)" stroke-width="1" opacity="1" d="M 41 38 L 57 38.5 L 42.5 39 L 41.5 40 L 41 38 Z " /><path fill="rgb(254,254,255)" stroke="rgb(254,254,255)" stroke-width="1" opacity="1" d="M 76.5 38 L 80 38.5 L 77.5 40 L 76.5 38 Z " /><path fill="rgb(254,254,255)" stroke="rgb(254,254,255)" stroke-width="1" opacity="1" d="M 95.5 38 Q 102.9 39.1 106 44.5 L 105.5 46 L 107 46.5 L 104.5 48 L 105 46.5 Q 99.6 43.8 101.5 41 L 99.5 40 L 97 40.5 L 96.5 42 L 95.5 38 Z " /><path fill="rgb(254,254,255)" stroke="rgb(254,254,255)" stroke-width="1" opacity="1" d="M 122.5 38 L 127 38.5 Q 125.8 41.3 124.5 39 L 120 40 L 119.5 43 L 118.5 40 L 116.5 43 L 114.5 43 L 113 43.5 L 113.5 45 Q 111.3 44.3 112 46.5 L 109 48.5 L 110.5 51 L 108.5 50 L 110 52.5 L 109.5 54 L 108.5 52 L 108 54.5 L 108.5 56 L 107 52.5 L 108 49.5 L 109.5 47 L 111 46.5 L 110 45.5 L 113.5 42 L 122.5 38 Z " /><path fill="rgb(254,254,255)" stroke="rgb(254,254,255)" stroke-width="1" opacity="1" d="M 138.5 38 L 141 38.5 L 138.5 39 L 138.5 38 Z " /><path fill="rgb(254,254,255)" stroke="rgb(254,254,255)" stroke-width="1" opacity="1" d="M 142 38 L 145 39.5 L 144.5 42 Q 142.3 42.8 143 40.5 L 142 38 Z " /><path fill="rgb(254,254,255)" stroke="rgb(254,254,255)" stroke-width="1" opacity="1" d="M 150.5 38 L 180 38.5 L 150.5 39 L 150.5 38 Z " /><path fill="rgb(254,254,255)" stroke="rgb(254,254,255)" stroke-width="1" opacity="1" d="M 181.5 38 L 184 38.5 L 181.5 39 L 181.5 38 Z " /><path fill="rgb(254,254,255)" stroke="rgb(254,254,255)" stroke-width="1" opacity="1" d="M 185.5 38 L 195.5 38 L 196 40 L 197.5 40 L 197.5 38 L 200 41.5 L 199.5 43 Q 201.8 42.3 201 44.5 Q 204.1 46.3 202.5 48 L 204 48.5 L 202.5 49 Q 199.8 47.8 202 46.5 L 198 42.5 L 198.5 41 L 196.5 42 L 194.5 39 L 185.5 39 L 185.5 38 Z " /><path fill="rgb(254,254,255)" stroke="rgb(254,254,255)" stroke-width="1" opacity="1" d="M 212.5 38 L 222 38.5 L 212.5 39 L 212.5 38 Z " /><path fill="rgb(254,254,255)" stroke="rgb(254,254,255)" stroke-width="1" opacity="1" d="M 225.5 38 L 262 38.5 L 225.5 39 L 225.5 38 Z " /><path fill="rgb(254,254,255)" stroke="rgb(254,254,255)" stroke-width="1" opacity="1" d="M 292.5 38 Q 299.9 39.1 303 44.5 L 303 46.5 L 301.5 49 L 302 47.5 L 301.5 46 L 300 46.5 L 301 45.5 L 297 41.5 L 296.5 40 L 294.5 40 L 292.5 38 Z " /><path fill="rgb(254,254,255)" stroke="rgb(254,254,255)" stroke-width="1" opacity="1" d="M 330.5 38 L 334 39.5 L 333.5 41 L 335 41.5 L 335 43.5 L 336 46.5 L 334 45.5 L 333.5 43 L 332.5 45 L 332 42.5 L 332.5 41 Q 330.3 41.8 331 39.5 L 330.5 38 Z " /><path fill="rgb(254,254,255)" stroke="rgb(254,254,255)" stroke-width="1" opacity="1" d="M 356.5 38 Q 358.8 37.3 358 39.5 L 359 39.5 L 359.5 38 L 363 44 L 361 43.5 Q 363.7 41.7 359.5 40 L 358.5 41 L 356.5 38 Z " /><path fill="rgb(254,254,255)" stroke="rgb(254,254,255)" stroke-width="1" opacity="1" d="M 413.5 38 L 416 38.5 L 415 41 L 410 43.5 L 410.5 45 L 408.5 46 L 409 44.5 L 410.5 42 L 412 41.5 Q 409.2 39.7 413.5 38 Z " /><path fill="rgb(254,254,255)" stroke="rgb(254,254,255)" stroke-width="1" opacity="1" d="M 425.5 38 L 427.5 38 L 429 38.5 L 427 39.5 L 429 40 L 428 42.5 Q 430.5 44 427 45.5 Q 427.8 47.8 425.5 47 Q 427.2 49.2 423 51.5 Q 423.8 53.8 421.5 53 Q 423.2 55 419.5 57 L 418 56.5 L 420 55.5 L 419 54.5 L 424 49.5 Q 421.5 48 425 46.5 Q 424.3 44.3 426.5 45 L 428 43.5 L 426 41.5 L 427 40.5 L 425.5 38 Z " /><path fill="rgb(254,254,255)" stroke="rgb(254,254,255)" stroke-width="1" opacity="1" d="M 70.5 39 Q 74.3 37.8 73 41.5 L 71 45.5 L 70.5 79 L 69 78.5 L 68.5 82 L 68 78.5 L 70 76.5 L 68.5 74 L 70 74.5 L 70 43.5 L 71 42.5 L 70.5 41 L 72 40.5 L 70.5 39 Z " /><path fill="rgb(254,254,255)" stroke="rgb(254,254,255)" stroke-width="1" opacity="1" d="M 266.5 39 L 269 39.5 L 266.5 40 L 266.5 39 Z " /><path fill="rgb(254,254,255)" stroke="rgb(254,254,255)" stroke-width="1" opacity="1" d="M 58.5 40 L 60 40.5 L 58 41 L 57.5 44 L 57 41.5 L 58.5 40 Z " /><path fill="rgb(254,254,255)" stroke="rgb(254,254,255)" stroke-width="1" opacity="1" d="M 147 40 L 149 40.5 L 147 41.5 L 147 40 Z " /><path fill="rgb(254,254,255)" stroke="rgb(254,254,255)" stroke-width="1" opacity="1" d="M 181.5 40 L 184 40.5 Q 181.9 43.8 181.5 40 Z " /><path fill="rgb(254,254,255)" stroke="rgb(254,254,255)" stroke-width="1" opacity="1" d="M 313.5 40 Q 316.8 38.9 316 41.5 L 314.5 41 L 313.5 40 Z " /><path fill="rgb(254,254,255)" stroke="rgb(254,254,255)" stroke-width="1" opacity="1" d="M 385.5 40 Q 387.8 39.3 387 41.5 L 385.5 40 Z " /><path fill="rgb(254,254,255)" stroke="rgb(254,254,255)" stroke-width="1" opacity="1" d="M 266.5 41 Q 268.8 40.3 268 42.5 L 266.5 41 Z " /><path fill="rgb(254,254,255)" stroke="rgb(254,254,255)" stroke-width="1" opacity="1" d="M 38.5 42 L 39 44.5 L 37 45.5 L 38.5 42 Z " /><path fill="rgb(254,254,255)" stroke="rgb(254,254,255)" stroke-width="1" opacity="1" d="M 59.5 42 L 60.5 44 Q 57.7 44.7 59.5 42 Z " /><path fill="rgb(254,254,255)" stroke="rgb(254,254,255)" stroke-width="1" opacity="1" d="M 313.5 42 L 312.5 44 L 313.5 42 Z " /><path fill="rgb(254,254,255)" stroke="rgb(254,254,255)" stroke-width="1" opacity="1" d="M 147.5 43 L 148 84.5 L 147 84.5 L 147.5 43 Z " /><path fill="rgb(254,254,255)" stroke="rgb(254,254,255)" stroke-width="1" opacity="1" d="M 182.5 43 L 183 84.5 L 182 84.5 L 182 52.5 L 181 51.5 L 182 48.5 L 182.5 43 Z " /><path fill="rgb(254,254,255)" stroke="rgb(254,254,255)" stroke-width="1" opacity="1" d="M 263.5 43 L 264 47.5 L 263 47.5 L 263.5 43 Z " /><path fill="rgb(254,254,255)" stroke="rgb(254,254,255)" stroke-width="1" opacity="1" d="M 386.5 43 L 387 83.5 L 386 83.5 L 386.5 43 Z " /><path fill="rgb(254,254,255)" stroke="rgb(254,254,255)" stroke-width="1" opacity="1" d="M 60.5 45 L 61.5 47 Q 59.3 46.3 60 48.5 L 59 48.5 L 60.5 45 Z " /><path fill="rgb(254,254,255)" stroke="rgb(254,254,255)" stroke-width="1" opacity="1" d="M 311 45 L 314 46.5 Q 315.5 50.9 312.5 50 L 310 49.5 Q 309.3 47.3 311.5 48 L 313 48.5 L 312.5 46 L 311 46.5 L 311 45 Z " /><path fill="rgb(254,254,255)" stroke="rgb(254,254,255)" stroke-width="1" opacity="1" d="M 362.5 45 L 366 47.5 L 365.5 49 Q 367.8 48.3 367 50.5 L 369 54 L 366.5 55 L 368 52.5 L 364.5 49 L 363 49.5 L 363.5 46 L 362.5 45 Z " /><path fill="rgb(254,254,255)" stroke="rgb(254,254,255)" stroke-width="1" opacity="1" d="M 37.5 47 Q 40 48.2 39 52 L 36.5 51 L 35 51.5 L 38 50.5 L 37.5 48 L 36 48.5 L 37.5 47 Z " /><path fill="rgb(254,254,255)" stroke="rgb(254,254,255)" stroke-width="1" opacity="1" d="M 407.5 47 L 409 47.5 L 407 48.5 L 407.5 52 L 405.5 51 L 404.5 54 L 403 53.5 L 405 52.5 L 405 50.5 L 407.5 47 Z " /><path fill="rgb(254,254,255)" stroke="rgb(254,254,255)" stroke-width="1" opacity="1" d="M 61.5 48 L 63 51.5 L 61 50.5 L 61.5 48 Z " /><path fill="rgb(254,254,255)" stroke="rgb(254,254,255)" stroke-width="1" opacity="1" d="M 85.5 48 L 87.5 49 L 89 48.5 L 88.5 50 L 93 52.5 L 91.5 53 L 85 50.5 L 85.5 48 Z " /><path fill="rgb(254,254,255)" stroke="rgb(254,254,255)" stroke-width="1" opacity="1" d="M 106.5 48 L 105.5 50 L 106.5 48 Z " /><path fill="rgb(254,254,255)" stroke="rgb(254,254,255)" stroke-width="1" opacity="1" d="M 335.5 48 Q 337.8 47.3 337 49.5 L 335.5 48 Z " /><path fill="rgb(254,254,255)" stroke="rgb(254,254,255)" stroke-width="1" opacity="1" d="M 129.5 50 Q 132.5 51.5 129.5 53 L 124 54.5 Q 126.8 56.2 122.5 58 L 121 55.5 L 122 55.5 L 122.5 57 L 125.5 52 L 129.5 50 Z " /><path fill="rgb(254,254,255)" stroke="rgb(254,254,255)" stroke-width="1" opacity="1" d="M 137.5 50 L 139.5 53 L 136 51.5 L 137.5 50 Z " /><path fill="rgb(254,254,255)" stroke="rgb(254,254,255)" stroke-width="1" opacity="1" d="M 161.5 50 L 162.5 51 L 180 51.5 L 162.5 52 L 160 51.5 L 161.5 50 Z " /><path fill="rgb(254,254,255)" stroke="rgb(254,254,255)" stroke-width="1" opacity="1" d="M 203.5 50 L 206 51.5 L 205.5 53 L 207 53.5 L 206.5 55 L 209 56.5 L 208.5 58 Q 211.1 57.3 210 60 Q 207.3 61.1 208 58.5 L 206 58.5 L 207.5 56 L 205 54.5 L 204 52.5 L 204.5 51 L 203.5 50 Z " /><path fill="rgb(254,254,255)" stroke="rgb(254,254,255)" stroke-width="1" opacity="1" d="M 279.5 50 L 281.5 50 Q 287.5 48.5 289 51.5 L 286.5 52 L 281 51 L 281 56 L 284.5 56 L 288 55 L 288.5 53 L 289 56 L 281 57 L 280.5 59 L 279 56.5 L 280 51.5 L 279.5 50 Z " /><path fill="rgb(254,254,255)" stroke="rgb(254,254,255)" stroke-width="1" opacity="1" d="M 94.5 51 L 95 53.5 L 94 53.5 L 94.5 51 Z " /><path fill="rgb(254,254,255)" stroke="rgb(254,254,255)" stroke-width="1" opacity="1" d="M 142.5 51 L 143 53 L 141 52.5 L 142.5 51 Z " /><path fill="rgb(254,254,255)" stroke="rgb(254,254,255)" stroke-width="1" opacity="1" d="M 224.5 51 L 225 84.5 L 224 84.5 L 224.5 51 Z " /><path fill="rgb(254,254,255)" stroke="rgb(254,254,255)" stroke-width="1" opacity="1" d="M 310.5 51 L 312 54.5 L 311 54.5 L 310.5 53 L 309 53.5 L 310.5 51 Z " /><path fill="rgb(254,254,255)" stroke="rgb(254,254,255)" stroke-width="1" opacity="1" d="M 336.5 51 Q 338.8 50.3 338 52.5 L 336 52.5 L 335.5 55 L 335 52.5 L 336.5 51 Z " /><path fill="rgb(254,254,255)" stroke="rgb(254,254,255)" stroke-width="1" opacity="1" d="M 49.5 52 L 48.5 54 L 49.5 52 Z " /><path fill="rgb(254,254,255)" stroke="rgb(254,254,255)" stroke-width="1" opacity="1" d="M 235.5 52 L 236 84.5 L 235 84.5 L 235.5 52 Z " /><path fill="rgb(254,254,255)" stroke="rgb(254,254,255)" stroke-width="1" opacity="1" d="M 250.5 52 L 251 84.5 L 250 84.5 L 250.5 52 Z " /><path fill="rgb(254,254,255)" stroke="rgb(254,254,255)" stroke-width="1" opacity="1" d="M 62.5 53 L 63.5 55 L 62.5 53 Z " /><path fill="rgb(254,254,255)" stroke="rgb(254,254,255)" stroke-width="1" opacity="1" d="M 322.5 54 L 324 57.5 L 322 56.5 L 322.5 54 Z " /><path fill="rgb(254,254,255)" stroke="rgb(254,254,255)" stroke-width="1" opacity="1" d="M 337.5 54 L 339 56.5 L 337 56.5 L 336.5 58 L 336 56.5 L 337.5 54 Z " /><path fill="rgb(254,254,255)" stroke="rgb(254,254,255)" stroke-width="1" opacity="1" d="M 61.5 55 L 62.5 57 Q 63.7 54.8 65 57.5 L 62.5 58 Q 59.4 58.7 61.5 55 Z " /><path fill="rgb(254,254,255)" stroke="rgb(254,254,255)" stroke-width="1" opacity="1" d="M 309.5 55 L 311 58.5 L 307.5 60 L 308.5 58 L 310 58.5 L 309.5 56 L 308 56.5 L 309.5 55 Z " /><path fill="rgb(254,254,255)" stroke="rgb(254,254,255)" stroke-width="1" opacity="1" d="M 368.5 55 L 372 57.5 L 371.5 60 L 369 59.5 Q 372.8 57.8 369.5 56 L 368.5 55 Z " /><path fill="rgb(254,254,255)" stroke="rgb(254,254,255)" stroke-width="1" opacity="1" d="M 162.5 56 L 177 56.5 L 162.5 57 L 162.5 56 Z " /><path fill="rgb(254,254,255)" stroke="rgb(254,254,255)" stroke-width="1" opacity="1" d="M 34.5 57 L 35.5 59 L 33.5 60 L 33 58.5 L 34.5 57 Z " /><path fill="rgb(254,254,255)" stroke="rgb(254,254,255)" stroke-width="1" opacity="1" d="M 91.5 57 Q 93.8 56.3 93 58.5 L 91 58.5 L 89.5 61 L 85 59.5 L 91.5 57 Z " /><path fill="rgb(254,254,255)" stroke="rgb(254,254,255)" stroke-width="1" opacity="1" d="M 108.5 57 L 109 59.5 L 108 59.5 L 108.5 57 Z " /><path fill="rgb(254,254,255)" stroke="rgb(254,254,255)" stroke-width="1" opacity="1" d="M 302.5 57 L 303 58.5 L 302 61.5 L 303 63.5 L 301.5 64 L 299 61.5 Q 302.1 59.7 300.5 58 L 302 58.5 L 302.5 57 Z " /><path fill="rgb(254,254,255)" stroke="rgb(254,254,255)" stroke-width="1" opacity="1" d="M 325.5 57 L 326 59.5 L 324.5 62 L 323.5 60 L 322 60.5 L 325 59.5 L 325.5 57 Z " /><path fill="rgb(254,254,255)" stroke="rgb(254,254,255)" stroke-width="1" opacity="1" d="M 49.5 58 L 50 59.5 L 50 61.5 L 47.5 64 L 46.5 62 L 49 61.5 L 49 59.5 L 49.5 58 Z " /><path fill="rgb(254,254,255)" stroke="rgb(254,254,255)" stroke-width="1" opacity="1" d="M 338.5 58 L 339.5 60 L 338 59.5 L 338.5 62 Q 339.8 59.8 341 62.5 L 337 63 Q 336 59.2 338.5 58 Z " /><path fill="rgb(254,254,255)" stroke="rgb(254,254,255)" stroke-width="1" opacity="1" d="M 418.5 58 L 419 59.5 L 415.5 62 L 415.5 61 L 417 60.5 L 416.5 59 L 418 59.5 L 418.5 58 Z " /><path fill="rgb(254,254,255)" stroke="rgb(254,254,255)" stroke-width="1" opacity="1" d="M 51.5 59 L 52 61.5 L 51 61.5 L 51.5 59 Z " /><path fill="rgb(254,254,255)" stroke="rgb(254,254,255)" stroke-width="1" opacity="1" d="M 105.5 60 L 108 61.5 L 106.5 61 L 105.5 60 Z " /><path fill="rgb(254,254,255)" stroke="rgb(254,254,255)" stroke-width="1" opacity="1" d="M 32.5 61 L 35 62.5 L 34.5 64 L 34 62 L 32.5 61 Z " /><path fill="rgb(254,254,255)" stroke="rgb(254,254,255)" stroke-width="1" opacity="1" d="M 120.5 61 L 122 64.5 L 121 67.5 L 120.5 70 L 119 63.5 L 120.5 61 Z " /><path fill="rgb(254,254,255)" stroke="rgb(254,254,255)" stroke-width="1" opacity="1" d="M 134 61 L 143.5 61 L 144 62.5 L 142.5 62 Q 136.3 60.2 134.5 63 L 134 61 Z " /><path fill="rgb(254,254,255)" stroke="rgb(254,254,255)" stroke-width="1" opacity="1" d="M 195.5 61 Q 197.8 60.3 197 62.5 L 195.5 61 Z " /><path fill="rgb(254,254,255)" stroke="rgb(254,254,255)" stroke-width="1" opacity="1" d="M 104.5 62 L 108 63 L 107 65.5 L 109 66.5 L 107 67 L 106.5 69 L 106 67.5 L 106.5 66 L 102 69.5 L 106 75.5 L 105.5 77 L 109 76 L 109.5 74 L 110 75.5 L 109.5 77 L 111 77.5 L 109 78.5 L 112 80.5 L 111 81.5 L 114.5 85 Q 115.8 82.8 117 85.5 L 117.5 87 L 118.5 85 L 119 87 L 125 89.5 L 123.5 89 Q 114.7 88.8 111.5 83 L 108.5 85 L 108.5 81 L 106 79.5 L 106.5 78 L 104 76.5 L 104.5 75 L 102 73.5 L 102.5 72 L 100 70.5 L 101.5 67 Q 102.7 69.3 104 66.5 L 103 65.5 Q 106.1 63.8 104.5 62 Z " /><path fill="rgb(254,254,255)" stroke="rgb(254,254,255)" stroke-width="1" opacity="1" d="M 65.5 63 L 66.5 65 L 64 64.5 L 65.5 63 Z " /><path fill="rgb(254,254,255)" stroke="rgb(254,254,255)" stroke-width="1" opacity="1" d="M 415.5 63 L 419 65.5 L 418.5 67 Q 420.8 66.3 420 68.5 Q 423.1 70.3 421.5 72 L 424 73.5 L 426 76.5 L 425.5 78 L 428 79.5 L 430 82.5 L 430 84.5 L 429.5 86 L 428.5 84 L 427 84.5 L 427 80.5 Q 427.8 78.3 425.5 79 L 423 78.5 L 423 74.5 Q 423.8 72.3 421.5 73 L 419.5 69 Q 417.3 69.8 418 67.5 Q 414.9 65.8 416.5 64 L 414.5 65 L 415.5 63 Z " /><path fill="rgb(254,254,255)" stroke="rgb(254,254,255)" stroke-width="1" opacity="1" d="M 32.5 65 L 34 65.5 L 31.5 67 L 32.5 65 Z " /><path fill="rgb(254,254,255)" stroke="rgb(254,254,255)" stroke-width="1" opacity="1" d="M 306.5 65 L 307.5 67 Q 306.3 64.8 305 67.5 L 306 69.5 L 304 70.5 L 305 69.5 L 303.5 67 L 306.5 65 Z " /><path fill="rgb(254,254,255)" stroke="rgb(254,254,255)" stroke-width="1" opacity="1" d="M 66.5 66 L 67.5 68 L 66.5 66 Z " /><path fill="rgb(254,254,255)" stroke="rgb(254,254,255)" stroke-width="1" opacity="1" d="M 199.5 67 L 199 68.5 L 201 71.5 L 200.5 73 L 202 73.5 L 200.5 74 L 197 68.5 L 199.5 67 Z " /><path fill="rgb(254,254,255)" stroke="rgb(254,254,255)" stroke-width="1" opacity="1" d="M 359 67 L 361 67.5 L 360.5 69 L 362.5 68 L 361.5 70 L 359 68.5 L 359 67 Z " /><path fill="rgb(254,254,255)" stroke="rgb(254,254,255)" stroke-width="1" opacity="1" d="M 31.5 68 L 30.5 70 L 31.5 68 Z " /><path fill="rgb(254,254,255)" stroke="rgb(254,254,255)" stroke-width="1" opacity="1" d="M 288.5 68 L 289 71 L 292 71.5 L 289.5 72 L 285 69.5 L 288.5 68 Z " /><path fill="rgb(254,254,255)" stroke="rgb(254,254,255)" stroke-width="1" opacity="1" d="M 341.5 68 L 342.5 70 L 340 69.5 L 341.5 68 Z " /><path fill="rgb(254,254,255)" stroke="rgb(254,254,255)" stroke-width="1" opacity="1" d="M 280.5 69 L 281 75.5 L 280 75.5 L 280.5 69 Z " /><path fill="rgb(254,254,255)" stroke="rgb(254,254,255)" stroke-width="1" opacity="1" d="M 122.5 70 L 124 70.5 L 122 71 L 121.5 74 L 121 71.5 L 122.5 70 Z " /><path fill="rgb(254,254,255)" stroke="rgb(254,254,255)" stroke-width="1" opacity="1" d="M 403.5 70 L 404.5 73 L 407 74.5 L 406.5 76 L 408.5 75 L 407 77.5 L 408.5 79 L 410.5 78 L 410.5 82 L 412 82.5 L 410.5 83 L 403 72.5 L 403.5 70 Z " /><path fill="rgb(254,254,255)" stroke="rgb(254,254,255)" stroke-width="1" opacity="1" d="M 30.5 71 Q 32.8 71.8 32 75.5 L 31 75.5 L 30.5 72 L 29 72.5 L 30.5 71 Z " /><path fill="rgb(254,254,255)" stroke="rgb(254,254,255)" stroke-width="1" opacity="1" d="M 66.5 71 L 69 72.5 L 67.5 72 L 66.5 71 Z " /><path fill="rgb(254,254,255)" stroke="rgb(254,254,255)" stroke-width="1" opacity="1" d="M 342.5 71 L 343.5 73 L 342.5 71 Z " /><path fill="rgb(254,254,255)" stroke="rgb(254,254,255)" stroke-width="1" opacity="1" d="M 85.5 72 Q 89.2 74 87.5 76 L 90 77.5 L 90.5 79 L 92 78.5 L 92 80.5 L 92.5 82 L 93.5 80 L 94 81.5 L 92.5 84 L 97 86 L 98 88.5 L 95.5 89 L 93 86.5 L 93.5 85 L 91 83.5 L 88 78.5 L 88.5 77 L 85 74.5 L 85.5 72 Z " /><path fill="rgb(254,254,255)" stroke="rgb(254,254,255)" stroke-width="1" opacity="1" d="M 108.5 72 L 108 73.5 L 107.5 75 L 107 73.5 L 108.5 72 Z " /><path fill="rgb(254,254,255)" stroke="rgb(254,254,255)" stroke-width="1" opacity="1" d="M 123.5 72 L 130 75.5 L 128.5 76 L 127 75.5 L 126.5 77 L 125.5 74 L 124 74.5 L 124.5 73 L 123.5 72 Z " /><path fill="rgb(254,254,255)" stroke="rgb(254,254,255)" stroke-width="1" opacity="1" d="M 303 72 L 306 73.5 L 305.5 75 L 304.5 73 L 304 75 L 302 74.5 L 303 72 Z " /><path fill="rgb(254,254,255)" stroke="rgb(254,254,255)" stroke-width="1" opacity="1" d="M 363.5 72 L 363.5 74 L 365.5 73 L 364.5 75 L 362 73.5 L 363.5 72 Z " /><path fill="rgb(254,254,255)" stroke="rgb(254,254,255)" stroke-width="1" opacity="1" d="M 289.5 73 L 292 73.5 L 286.5 76 L 286.5 75 L 289.5 73 Z " /><path fill="rgb(254,254,255)" stroke="rgb(254,254,255)" stroke-width="1" opacity="1" d="M 29.5 74 L 28.5 76 L 29.5 74 Z " /><path fill="rgb(254,254,255)" stroke="rgb(254,254,255)" stroke-width="1" opacity="1" d="M 201.5 75 L 204 76.5 L 203.5 78 Q 205.8 78.8 205 76.5 L 206 76.5 L 204.5 79 L 202 77.5 L 202.5 76 L 201.5 75 Z " /><path fill="rgb(254,254,255)" stroke="rgb(254,254,255)" stroke-width="1" opacity="1" d="M 318.5 76 L 328.5 76 L 329 77.5 L 327.5 77 L 318.5 77 L 318.5 76 Z " /><path fill="rgb(254,254,255)" stroke="rgb(254,254,255)" stroke-width="1" opacity="1" d="M 364.5 76 L 367 77.5 L 366.5 79 L 368 79.5 L 366.5 80 L 365.5 77 L 364.5 76 Z " /><path fill="rgb(254,254,255)" stroke="rgb(254,254,255)" stroke-width="1" opacity="1" d="M 53.5 77 Q 55.8 76.3 55 78.5 L 53.5 77 Z " /><path fill="rgb(254,254,255)" stroke="rgb(254,254,255)" stroke-width="1" opacity="1" d="M 317 78 L 319 78.5 L 317 79.5 L 317 78 Z " /><path fill="rgb(254,254,255)" stroke="rgb(254,254,255)" stroke-width="1" opacity="1" d="M 344.5 78 L 345 80 L 343 79.5 L 344.5 78 Z " /><path fill="rgb(254,254,255)" stroke="rgb(254,254,255)" stroke-width="1" opacity="1" d="M 27.5 79 Q 32.1 77.8 30 83 L 26 82.5 L 29 81.5 Q 29.8 79.3 27.5 80 L 27.5 79 Z " /><path fill="rgb(254,254,255)" stroke="rgb(254,254,255)" stroke-width="1" opacity="1" d="M 54.5 80 Q 56.8 79.3 56 81.5 L 54.5 80 Z " /><path fill="rgb(254,254,255)" stroke="rgb(254,254,255)" stroke-width="1" opacity="1" d="M 204 80 L 207 81.5 L 206.5 83 Q 208.8 82.3 208 84.5 L 210 84.5 L 209.5 86 Q 211.8 85.3 211 87.5 L 211.5 89 L 209.5 89 L 207 86.5 L 207.5 85 Q 205.3 85.8 206 83.5 L 204 80 Z " /><path fill="rgb(254,254,255)" stroke="rgb(254,254,255)" stroke-width="1" opacity="1" d="M 301.5 81 L 303 83.5 L 301.5 83 L 300 83.5 Q 302.3 84.8 299.5 86 Q 297.5 89 291.5 88 L 291.5 87 L 298 86 L 301.5 81 Z " /><path fill="rgb(254,254,255)" stroke="rgb(254,254,255)" stroke-width="1" opacity="1" d="M 315.5 81 L 318 81.5 Q 315.9 84.8 315.5 81 Z " /><path fill="rgb(254,254,255)" stroke="rgb(254,254,255)" stroke-width="1" opacity="1" d="M 329.5 81 Q 331.8 80.3 331 82.5 L 329.5 81 Z " /><path fill="rgb(254,254,255)" stroke="rgb(254,254,255)" stroke-width="1" opacity="1" d="M 367.5 81 L 370 82.5 L 369.5 84 L 373 85 L 374 87.5 L 371.5 88 L 370 86.5 L 370.5 85 L 368 83.5 L 367.5 81 Z " /><path fill="rgb(254,254,255)" stroke="rgb(254,254,255)" stroke-width="1" opacity="1" d="M 55.5 83 L 58 83.5 Q 55.9 86.8 55.5 83 Z " /><path fill="rgb(254,254,255)" stroke="rgb(254,254,255)" stroke-width="1" opacity="1" d="M 314.5 83 L 315.5 85 L 317 84.5 L 314 86.5 L 316 87.5 L 313 88 L 314.5 83 Z " /><path fill="rgb(254,254,255)" stroke="rgb(254,254,255)" stroke-width="1" opacity="1" d="M 40.5 84 L 43 84.5 L 40 85.5 L 39.5 87 L 39 85.5 L 40.5 84 Z " /><path fill="rgb(254,254,255)" stroke="rgb(254,254,255)" stroke-width="1" opacity="1" d="M 330.5 84 L 333 84.5 Q 330.9 87.8 330.5 84 Z " /><path fill="rgb(254,254,255)" stroke="rgb(254,254,255)" stroke-width="1" opacity="1" d="M 411.5 84 L 414 85.5 L 413.5 87 L 416 87.5 L 413.5 88 L 411.5 84 Z " /><path fill="rgb(254,254,255)" stroke="rgb(254,254,255)" stroke-width="1" opacity="1" d="M 28.5 85 L 27.5 87 L 26 86.5 L 28.5 85 Z " /><path fill="rgb(254,254,255)" stroke="rgb(254,254,255)" stroke-width="1" opacity="1" d="M 58.5 85 L 57.5 87 L 56 86.5 L 58.5 85 Z " /><path fill="rgb(254,254,255)" stroke="rgb(254,254,255)" stroke-width="1" opacity="1" d="M 70.5 85 Q 72.8 84.3 72 86.5 L 71.5 88 L 73 88.5 L 71.5 89 L 69 88.5 Q 72.1 86.8 70.5 85 Z " /><path fill="rgb(254,254,255)" stroke="rgb(254,254,255)" stroke-width="1" opacity="1" d="M 110.5 85 L 111 86.5 L 110.5 89 L 108 88.5 L 110.5 85 Z " /><path fill="rgb(254,254,255)" stroke="rgb(254,254,255)" stroke-width="1" opacity="1" d="M 333.5 86 L 334 88 L 331 87.5 L 333.5 86 Z " /><path fill="rgb(254,254,255)" stroke="rgb(254,254,255)" stroke-width="1" opacity="1" d="M 427.5 86 L 430 87.5 L 428.5 88 L 427.5 86 Z " /><path fill="rgb(254,254,255)" stroke="rgb(254,254,255)" stroke-width="1" opacity="1" d="M 41.5 87 L 40.5 89 L 41.5 87 Z " /><path fill="rgb(254,254,255)" stroke="rgb(254,254,255)" stroke-width="1" opacity="1" d="M 130.5 87 L 130.5 89 L 137.5 88 L 140 89.5 L 126.5 90 L 126.5 89 L 130.5 87 Z " /><path fill="rgb(254,254,255)" stroke="rgb(254,254,255)" stroke-width="1" opacity="1" d="M 286.5 87 L 287.5 89 L 284 88.5 L 286.5 87 Z " /><path fill="rgb(254,254,255)" stroke="rgb(254,254,255)" stroke-width="1" opacity="1" d="M 26.5 88 L 29 88.5 L 26.5 89 L 26.5 88 Z " /><path fill="rgb(254,254,255)" stroke="rgb(254,254,255)" stroke-width="1" opacity="1" d="M 143.5 88 L 142.5 90 L 141 89.5 L 143.5 88 Z " /><path fill="rgb(254,254,255)" stroke="rgb(254,254,255)" stroke-width="1" opacity="1" d="M 270.5 88 L 278 88.5 L 270.5 89 L 270.5 88 Z " /><path fill="rgb(255,255,255)" stroke="rgb(255,255,255)" stroke-width="1" opacity="1" d="M 0 0 L 455.5 0 L 456 0.5 L 456 124 L 0.5 124 L 0 123.5 L 0 0 Z M 84 37 Q 82 40 77 38 L 75 38 L 70 40 L 72 41 L 70 41 L 70 75 Q 67 74 69 73 L 68 70 L 66 66 L 67 65 L 65 63 L 66 62 L 65 60 L 63 56 L 64 55 L 62 53 L 63 52 L 62 49 L 60 40 L 58 41 L 57 40 L 43 40 L 40 42 Q 41 39 39 40 L 39 42 L 38 45 L 36 49 L 37 50 L 35 52 L 36 53 L 35 55 L 33 59 L 34 61 L 33 61 L 33 63 L 32 66 L 30 70 L 31 71 L 29 73 L 30 74 L 28 76 L 29 77 L 28 79 L 26 85 L 27 87 L 41 87 Q 45 85 42 84 L 43 81 L 43 79 L 45 77 L 53 77 L 55 80 L 55 84 L 57 86 L 56 87 L 58 87 L 60 87 L 70 87 L 71 86 L 72 87 L 83 87 L 84 72 L 85 87 L 85 76 L 86 73 Q 90 75 87 77 L 89 77 L 88 79 L 89 81 L 91 80 L 90 82 L 91 84 L 93 83 L 92 85 L 97 88 L 98 87 L 109 87 L 111 87 L 111 86 Q 109 84 112 83 L 111 80 L 115 85 Q 113 86 116 87 L 118 86 L 117 88 L 124 89 L 127 90 L 140 90 L 141 89 L 143 90 L 144 88 Q 137 86 136 89 L 124 88 L 118 85 L 116 82 L 124 87 Q 129 86 131 88 L 144 87 L 144 64 L 134 64 L 134 76 L 133 64 L 132 76 L 130 75 L 128 76 L 128 74 L 126 75 Q 123 74 125 73 L 124 72 L 124 71 L 123 70 L 123 69 Q 120 67 122 61 L 124 57 L 123 56 L 130 53 L 132 51 L 136 51 L 139 52 L 142 53 Q 144 54 143 51 L 138 50 Q 129 49 125 52 L 121 55 Q 124 50 130 49 L 143 50 L 144 44 L 145 50 L 145 42 Q 144 39 143 41 L 140 40 Q 128 38 122 42 L 120 42 L 127 39 L 140 39 L 141 40 L 144 39 L 143 38 L 141 38 Q 127 36 119 39 L 119 41 L 117 40 L 116 43 L 118 43 L 119 43 L 113 48 L 112 46 L 115 45 L 113 43 Q 108 45 111 47 L 110 47 L 110 49 L 109 48 L 108 50 Q 110 51 108 52 L 108 51 L 107 49 L 107 47 L 101 42 L 104 47 L 97 42 L 100 40 L 97 38 L 95 39 L 90 38 L 88 38 L 86 37 L 84 37 Z M 41 38 L 42 40 L 43 39 L 57 39 L 41 38 Z M 151 38 L 151 39 L 180 39 L 151 38 Z M 182 38 L 182 39 L 184 39 L 182 38 Z M 186 38 L 186 39 L 195 39 L 196 40 L 196 38 L 186 38 Z M 213 38 L 213 39 L 222 39 L 213 38 Z M 226 38 L 226 39 L 262 39 L 226 38 Z M 271 38 L 267 39 L 267 40 Q 272 42 274 39 L 290 39 L 295 41 L 297 40 L 294 38 L 292 39 L 291 38 L 273 38 L 271 38 Z M 317 38 L 317 39 L 331 39 L 317 38 Z M 348 38 L 348 39 L 357 39 L 358 40 L 358 38 L 348 38 Z M 360 38 L 359 40 L 361 41 L 360 38 Z M 375 38 L 375 39 L 384 39 L 375 38 Z M 391 38 L 391 39 L 401 39 L 391 38 Z M 416 38 L 416 39 L 426 39 L 416 38 Z M 199 39 L 196 41 L 195 40 L 185 40 L 185 87 L 186 87 L 195 87 L 196 62 L 197 87 L 198 69 L 198 72 L 200 71 Q 202 72 200 74 L 202 74 L 201 76 L 203 76 Q 205 77 203 79 L 205 80 L 204 82 L 206 81 Q 208 82 206 84 Q 205 86 208 85 L 211 88 L 212 87 L 222 87 L 222 87 L 222 40 L 212 40 L 212 66 L 209 65 L 211 65 L 211 41 L 210 41 L 210 58 L 209 58 Q 206 57 208 56 L 207 55 L 207 54 L 206 53 Q 203 52 205 51 L 204 50 L 204 49 L 203 48 Q 198 46 201 45 Q 202 42 200 43 Q 197 42 199 41 L 199 39 Z M 332 39 L 331 40 L 314 40 Q 315 42 312 44 L 313 45 L 311 45 L 312 48 L 310 48 L 311 51 L 310 53 L 308 57 L 309 58 L 307 60 L 308 61 L 307 63 L 306 68 L 304 67 L 298 64 L 303 59 L 303 47 L 299 43 L 300 42 L 298 40 L 296 42 L 300 46 Q 297 41 290 40 L 274 40 L 273 41 L 266 41 L 267 86 L 268 45 L 268 86 L 275 87 L 292 86 Q 298 85 301 80 L 297 85 L 300 86 L 301 83 L 300 85 L 302 86 L 313 87 L 304 87 L 304 88 L 316 88 L 314 87 L 316 86 L 318 82 L 317 81 L 319 79 L 318 78 L 328 77 L 329 80 L 332 86 L 334 85 L 335 86 L 344 86 L 346 86 L 346 40 L 345 76 L 344 75 L 342 71 L 343 70 L 341 68 L 342 67 L 341 65 L 339 61 L 340 60 L 338 58 L 339 57 L 338 55 L 338 53 Q 339 50 337 51 L 337 50 Q 338 47 336 48 L 336 47 L 335 44 L 335 42 L 332 39 Z M 415 39 L 411 42 L 411 44 L 409 44 L 410 46 L 408 47 L 408 49 L 405 50 L 406 52 L 403 53 L 403 40 L 402 56 L 401 56 L 401 40 L 390 40 L 390 86 L 391 86 L 401 86 L 402 70 L 403 86 L 403 74 L 403 72 L 405 73 L 404 75 L 407 76 L 406 78 L 409 79 L 408 81 L 410 80 Q 412 81 410 83 L 412 83 Q 414 84 412 86 L 413 87 L 415 86 L 414 85 L 417 86 L 427 86 L 428 85 L 430 86 L 426 81 L 427 79 L 426 78 L 423 75 Q 421 77 420 75 L 422 75 L 423 73 L 422 72 Q 417 70 420 69 Q 421 66 419 67 Q 414 65 417 64 L 415 63 L 417 62 L 416 61 L 417 59 L 420 57 L 419 56 L 423 53 L 422 51 L 427 47 L 426 45 L 429 40 L 427 41 L 426 40 L 416 40 L 415 39 Z M 147 40 L 147 87 L 149 87 L 149 41 L 147 40 Z M 150 40 L 150 87 L 181 87 L 181 87 L 181 78 L 160 78 L 181 77 L 181 76 L 163 76 L 162 76 L 162 70 L 177 70 L 160 69 L 177 68 L 177 59 L 162 59 L 163 57 L 177 57 L 177 56 L 163 56 L 162 52 L 180 52 L 162 51 L 180 50 L 180 40 L 150 40 Z M 181 40 L 181 50 L 182 53 L 182 87 L 184 87 L 184 41 L 181 40 Z M 224 40 L 223 87 L 225 87 L 225 52 L 235 52 L 235 53 L 235 87 L 237 87 L 237 53 L 238 53 L 238 87 L 239 87 L 249 87 L 250 52 L 251 87 L 251 52 L 262 52 L 248 51 L 262 50 L 262 41 L 262 40 L 225 40 L 225 47 L 224 40 Z M 264 40 L 263 50 L 264 50 L 264 40 Z M 347 40 L 347 86 L 348 86 L 357 86 L 357 63 L 359 61 L 358 63 L 359 86 L 359 70 L 361 68 L 360 70 L 362 70 L 363 73 L 363 75 L 365 75 L 364 77 L 366 77 Q 368 78 366 80 L 369 82 L 368 84 L 370 83 L 369 85 L 371 85 Q 372 88 374 86 L 384 86 L 384 86 L 384 40 L 374 40 L 374 64 Q 373 67 371 64 L 373 64 L 373 40 L 372 57 L 372 59 Q 367 57 370 56 L 368 55 L 369 53 L 368 53 Q 365 52 367 51 Q 368 48 366 49 Q 361 47 364 46 L 362 45 L 363 43 Q 361 44 360 41 L 359 42 L 357 40 L 347 40 Z M 385 40 L 385 86 L 387 86 L 387 41 L 385 40 Z M 389 40 L 388 86 L 389 86 L 389 40 Z M 179 58 L 178 68 L 179 68 L 179 58 Z M 134 61 L 135 63 L 144 63 L 144 61 L 134 61 Z M 302 61 Q 299 63 302 64 L 303 64 L 302 61 Z M 146 64 L 145 87 L 146 87 L 146 64 Z M 296 85 L 286 88 L 275 88 L 274 87 L 268 88 L 271 89 L 288 89 L 290 89 Q 291 87 297 88 L 298 87 L 296 85 Z M 334 86 L 332 87 L 332 88 L 344 88 L 335 87 L 334 86 Z M 416 86 L 414 87 L 414 88 L 427 88 L 417 87 L 416 86 Z M 348 87 L 348 88 L 357 88 L 348 87 Z M 374 87 L 374 88 L 384 88 L 374 87 Z M 391 87 L 391 88 L 401 88 L 391 87 Z M 27 88 L 27 89 L 39 89 L 27 88 Z M 60 88 L 60 89 L 70 89 L 60 88 Z M 72 88 L 72 89 L 83 89 L 72 88 Z M 98 88 L 98 89 L 109 89 L 98 88 Z M 151 88 L 151 89 L 181 89 L 151 88 Z M 186 88 L 186 89 L 195 89 L 186 88 Z M 212 88 L 212 89 L 222 89 L 212 88 Z M 239 88 L 239 89 L 249 89 L 239 88 Z " /><path fill="rgb(255,255,255)" stroke="rgb(255,255,255)" stroke-width="1" opacity="1" d="M 78.5 39 L 92.5 39 L 96 40.5 L 93.5 41 L 92.5 40 L 78.5 40 L 73.5 41 L 73.5 40 L 78.5 39 Z " /><path fill="rgb(255,255,255)" stroke="rgb(255,255,255)" stroke-width="1" opacity="1" d="M 414.5 41 L 413.5 43 L 414.5 41 Z " /><path fill="rgb(255,255,255)" stroke="rgb(255,255,255)" stroke-width="1" opacity="1" d="M 196.5 42 L 197.5 44 L 196.5 42 Z " /><path fill="rgb(255,255,255)" stroke="rgb(255,255,255)" stroke-width="1" opacity="1" d="M 315.5 42 L 314.5 44 L 315.5 42 Z " /><path fill="rgb(255,255,255)" stroke="rgb(255,255,255)" stroke-width="1" opacity="1" d="M 412.5 44 L 411.5 46 L 412.5 44 Z " /><path fill="rgb(255,255,255)" stroke="rgb(255,255,255)" stroke-width="1" opacity="1" d="M 424.5 44 L 423.5 46 L 424.5 44 Z " /><path fill="rgb(255,255,255)" stroke="rgb(255,255,255)" stroke-width="1" opacity="1" d="M 71.5 45 L 72 82.5 L 71 82.5 L 71.5 45 Z " /><path fill="rgb(255,255,255)" stroke="rgb(255,255,255)" stroke-width="1" opacity="1" d="M 360.5 45 L 361.5 47 L 360.5 45 Z " /><path fill="rgb(255,255,255)" stroke="rgb(255,255,255)" stroke-width="1" opacity="1" d="M 199.5 47 L 200.5 49 L 199.5 47 Z " /><path fill="rgb(255,255,255)" stroke="rgb(255,255,255)" stroke-width="1" opacity="1" d="M 410.5 47 L 409.5 49 L 410.5 47 Z " /><path fill="rgb(255,255,255)" stroke="rgb(255,255,255)" stroke-width="1" opacity="1" d="M 422.5 47 L 421.5 49 L 422.5 47 Z " /><path fill="rgb(255,255,255)" stroke="rgb(255,255,255)" stroke-width="1" opacity="1" d="M 86.5 48 L 92.5 49 L 94 50.5 L 92.5 50 L 86.5 49 L 85 49.5 L 86.5 48 Z " /><path fill="rgb(255,255,255)" stroke="rgb(255,255,255)" stroke-width="1" opacity="1" d="M 280.5 48 Q 288.1 46.9 291 50.5 L 289.5 50 L 280.5 49 L 279 49.5 L 280.5 48 Z " /><path fill="rgb(255,255,255)" stroke="rgb(255,255,255)" stroke-width="1" opacity="1" d="M 333.5 48 L 334.5 50 L 333.5 48 Z " /><path fill="rgb(255,255,255)" stroke="rgb(255,255,255)" stroke-width="1" opacity="1" d="M 225.5 50 L 238 50.5 L 225.5 51 L 225.5 50 Z " /><path fill="rgb(255,255,255)" stroke="rgb(255,255,255)" stroke-width="1" opacity="1" d="M 363.5 50 L 364.5 52 L 363.5 50 Z " /><path fill="rgb(255,255,255)" stroke="rgb(255,255,255)" stroke-width="1" opacity="1" d="M 49.5 51 L 50 53.5 L 48.5 55 L 48 52.5 L 49.5 51 Z " /><path fill="rgb(255,255,255)" stroke="rgb(255,255,255)" stroke-width="1" opacity="1" d="M 83.5 51 L 84 58.5 L 83 58.5 L 83.5 51 Z " /><path fill="rgb(255,255,255)" stroke="rgb(255,255,255)" stroke-width="1" opacity="1" d="M 85 51 L 90.5 52 L 92 51.5 L 91.5 53 L 93 53.5 L 92 55.5 L 92.5 57 L 91 57.5 L 91.5 59 L 89.5 58 L 85 59 L 85 51 Z " /><path fill="rgb(255,255,255)" stroke="rgb(255,255,255)" stroke-width="1" opacity="1" d="M 279.5 51 L 280 55.5 L 279 55.5 L 279.5 51 Z " /><path fill="rgb(255,255,255)" stroke="rgb(255,255,255)" stroke-width="1" opacity="1" d="M 281 51 L 289 52.5 L 288 55 L 281 56 L 281 51 Z " /><path fill="rgb(255,255,255)" stroke="rgb(255,255,255)" stroke-width="1" opacity="1" d="M 301.5 51 L 302 54.5 L 301 54.5 L 301.5 51 Z " /><path fill="rgb(255,255,255)" stroke="rgb(255,255,255)" stroke-width="1" opacity="1" d="M 105.5 52 L 106 57.5 L 105 57.5 L 105.5 52 Z " /><path fill="rgb(255,255,255)" stroke="rgb(255,255,255)" stroke-width="1" opacity="1" d="M 160.5 52 L 161 55.5 L 160 55.5 L 160.5 52 Z " /><path fill="rgb(255,255,255)" stroke="rgb(255,255,255)" stroke-width="1" opacity="1" d="M 202.5 52 L 203.5 54 L 202.5 52 Z " /><path fill="rgb(255,255,255)" stroke="rgb(255,255,255)" stroke-width="1" opacity="1" d="M 407.5 52 L 406.5 54 L 407.5 52 Z " /><path fill="rgb(255,255,255)" stroke="rgb(255,255,255)" stroke-width="1" opacity="1" d="M 419.5 52 L 418.5 54 L 419.5 52 Z " /><path fill="rgb(255,255,255)" stroke="rgb(255,255,255)" stroke-width="1" opacity="1" d="M 60.5 53 L 61.5 55 L 60.5 53 Z " /><path fill="rgb(255,255,255)" stroke="rgb(255,255,255)" stroke-width="1" opacity="1" d="M 290.5 55 L 288.5 58 L 281 59 L 281.5 57 L 288.5 57 L 290.5 55 Z " /><path fill="rgb(255,255,255)" stroke="rgb(255,255,255)" stroke-width="1" opacity="1" d="M 324.5 55 L 325.5 57 L 324.5 55 Z " /><path fill="rgb(255,255,255)" stroke="rgb(255,255,255)" stroke-width="1" opacity="1" d="M 366.5 55 L 367.5 57 L 366.5 55 Z " /><path fill="rgb(255,255,255)" stroke="rgb(255,255,255)" stroke-width="1" opacity="1" d="M 405.5 55 L 403.5 58 L 401 57.5 L 405.5 55 Z " /><path fill="rgb(255,255,255)" stroke="rgb(255,255,255)" stroke-width="1" opacity="1" d="M 417.5 55 L 416.5 57 L 417.5 55 Z " /><path fill="rgb(255,255,255)" stroke="rgb(255,255,255)" stroke-width="1" opacity="1" d="M 301.5 56 L 300.5 58 L 301.5 56 Z " /><path fill="rgb(255,255,255)" stroke="rgb(255,255,255)" stroke-width="1" opacity="1" d="M 50.5 57 L 51.5 59 L 50.5 57 Z " /><path fill="rgb(255,255,255)" stroke="rgb(255,255,255)" stroke-width="1" opacity="1" d="M 94.5 58 L 92.5 61 L 83.5 62 L 83.5 61 Q 91.6 62.1 94.5 58 Z " /><path fill="rgb(255,255,255)" stroke="rgb(255,255,255)" stroke-width="1" opacity="1" d="M 415.5 58 L 414.5 60 L 415.5 58 Z " /><path fill="rgb(255,255,255)" stroke="rgb(255,255,255)" stroke-width="1" opacity="1" d="M 206.5 59 L 207.5 61 L 206.5 59 Z " /><path fill="rgb(255,255,255)" stroke="rgb(255,255,255)" stroke-width="1" opacity="1" d="M 299.5 59 L 296.5 63 L 295 62.5 L 299.5 59 Z " /><path fill="rgb(255,255,255)" stroke="rgb(255,255,255)" stroke-width="1" opacity="1" d="M 310.5 59 L 309.5 61 L 310.5 59 Z " /><path fill="rgb(255,255,255)" stroke="rgb(255,255,255)" stroke-width="1" opacity="1" d="M 49.5 60 L 50 62.5 Q 50.8 64.8 48.5 64 L 48 61.5 L 49.5 60 Z " /><path fill="rgb(255,255,255)" stroke="rgb(255,255,255)" stroke-width="1" opacity="1" d="M 323.5 60 L 325 62.5 L 323.5 63 Q 320.5 61.5 323.5 60 Z " /><path fill="rgb(255,255,255)" stroke="rgb(255,255,255)" stroke-width="1" opacity="1" d="M 103.5 63 L 98.5 69 L 97 68.5 L 103.5 63 Z " /><path fill="rgb(255,255,255)" stroke="rgb(255,255,255)" stroke-width="1" opacity="1" d="M 105.5 64 L 106 66.5 L 107 69.5 L 107 71.5 L 108 75.5 L 107.5 77 L 110 78.5 L 108.5 78 L 107 78.5 L 107.5 80 L 106.5 77 L 104 75.5 L 105 73.5 L 102 72.5 L 103 70.5 L 100 69.5 L 105.5 64 Z " /><path fill="rgb(255,255,255)" stroke="rgb(255,255,255)" stroke-width="1" opacity="1" d="M 319.5 64 L 328 64.5 L 319.5 65 L 319.5 64 Z " /><path fill="rgb(255,255,255)" stroke="rgb(255,255,255)" stroke-width="1" opacity="1" d="M 45.5 65 L 54 65.5 L 45.5 66 L 45.5 65 Z " /><path fill="rgb(255,255,255)" stroke="rgb(255,255,255)" stroke-width="1" opacity="1" d="M 338.5 65 L 339.5 67 L 338.5 65 Z " /><path fill="rgb(255,255,255)" stroke="rgb(255,255,255)" stroke-width="1" opacity="1" d="M 414.5 65 L 415.5 67 L 414.5 65 Z " /><path fill="rgb(255,255,255)" stroke="rgb(255,255,255)" stroke-width="1" opacity="1" d="M 361.5 66 L 362.5 68 L 361.5 66 Z " /><path fill="rgb(255,255,255)" stroke="rgb(255,255,255)" stroke-width="1" opacity="1" d="M 279.5 67 L 288 67.5 L 279.5 68 L 279.5 67 Z " /><path fill="rgb(255,255,255)" stroke="rgb(255,255,255)" stroke-width="1" opacity="1" d="M 301.5 67 L 302.5 69 L 301.5 67 Z " /><path fill="rgb(255,255,255)" stroke="rgb(255,255,255)" stroke-width="1" opacity="1" d="M 289.5 68 L 292 69.5 L 290.5 69 L 289.5 68 Z " /><path fill="rgb(255,255,255)" stroke="rgb(255,255,255)" stroke-width="1" opacity="1" d="M 401.5 68 L 405 68.5 L 401.5 69 L 401.5 68 Z " /><path fill="rgb(255,255,255)" stroke="rgb(255,255,255)" stroke-width="1" opacity="1" d="M 416.5 68 L 417.5 70 L 416.5 68 Z " /><path fill="rgb(255,255,255)" stroke="rgb(255,255,255)" stroke-width="1" opacity="1" d="M 279.5 69 L 280 75.5 L 279 75.5 L 279.5 69 Z " /><path fill="rgb(255,255,255)" stroke="rgb(255,255,255)" stroke-width="1" opacity="1" d="M 281 69 L 288.5 71 L 290 70.5 L 290 74.5 L 288.5 76 L 286.5 75 L 281 76 L 281 69 Z " /><path fill="rgb(255,255,255)" stroke="rgb(255,255,255)" stroke-width="1" opacity="1" d="M 307.5 69 L 306.5 71 L 307.5 69 Z " /><path fill="rgb(255,255,255)" stroke="rgb(255,255,255)" stroke-width="1" opacity="1" d="M 83.5 70 Q 87.3 69.3 88 71.5 L 86.5 71 Q 82.5 71.8 83.5 70 Z " /><path fill="rgb(255,255,255)" stroke="rgb(255,255,255)" stroke-width="1" opacity="1" d="M 98.5 70 L 99.5 72 L 98.5 70 Z " /><path fill="rgb(255,255,255)" stroke="rgb(255,255,255)" stroke-width="1" opacity="1" d="M 160.5 70 L 161 75.5 L 160 75.5 L 160.5 70 Z " /><path fill="rgb(255,255,255)" stroke="rgb(255,255,255)" stroke-width="1" opacity="1" d="M 302.5 70 L 303.5 72 L 302.5 70 Z " /><path fill="rgb(255,255,255)" stroke="rgb(255,255,255)" stroke-width="1" opacity="1" d="M 405.5 70 L 406.5 72 L 405.5 70 Z " /><path fill="rgb(255,255,255)" stroke="rgb(255,255,255)" stroke-width="1" opacity="1" d="M 364.5 71 L 365.5 73 L 364.5 71 Z " /><path fill="rgb(255,255,255)" stroke="rgb(255,255,255)" stroke-width="1" opacity="1" d="M 418.5 71 L 419.5 73 L 418.5 71 Z " /><path fill="rgb(255,255,255)" stroke="rgb(255,255,255)" stroke-width="1" opacity="1" d="M 202.5 72 L 203.5 74 L 202.5 72 Z " /><path fill="rgb(255,255,255)" stroke="rgb(255,255,255)" stroke-width="1" opacity="1" d="M 340.5 72 L 341.5 74 L 340.5 72 Z " /><path fill="rgb(255,255,255)" stroke="rgb(255,255,255)" stroke-width="1" opacity="1" d="M 88.5 73 L 89.5 75 L 88.5 73 Z " /><path fill="rgb(255,255,255)" stroke="rgb(255,255,255)" stroke-width="1" opacity="1" d="M 100.5 73 L 101.5 75 L 100.5 73 Z " /><path fill="rgb(255,255,255)" stroke="rgb(255,255,255)" stroke-width="1" opacity="1" d="M 407.5 73 L 408.5 75 L 407.5 73 Z " /><path fill="rgb(255,255,255)" stroke="rgb(255,255,255)" stroke-width="1" opacity="1" d="M 122.5 74 L 126 76.5 L 124.5 77 L 122.5 74 Z " /><path fill="rgb(255,255,255)" stroke="rgb(255,255,255)" stroke-width="1" opacity="1" d="M 316.5 74 L 331 74.5 L 316.5 75 L 316.5 74 Z " /><path fill="rgb(255,255,255)" stroke="rgb(255,255,255)" stroke-width="1" opacity="1" d="M 42.5 75 L 56 75.5 L 42.5 76 L 42.5 75 Z " /><path fill="rgb(255,255,255)" stroke="rgb(255,255,255)" stroke-width="1" opacity="1" d="M 291.5 75 L 290.5 77 L 291.5 75 Z " /><path fill="rgb(255,255,255)" stroke="rgb(255,255,255)" stroke-width="1" opacity="1" d="M 90.5 76 L 91.5 78 L 90.5 76 Z " /><path fill="rgb(255,255,255)" stroke="rgb(255,255,255)" stroke-width="1" opacity="1" d="M 102.5 76 L 103.5 78 L 102.5 76 Z " /><path fill="rgb(255,255,255)" stroke="rgb(255,255,255)" stroke-width="1" opacity="1" d="M 367.5 76 L 368.5 78 L 367.5 76 Z " /><path fill="rgb(255,255,255)" stroke="rgb(255,255,255)" stroke-width="1" opacity="1" d="M 409.5 76 L 410.5 78 L 409.5 76 Z " /><path fill="rgb(255,255,255)" stroke="rgb(255,255,255)" stroke-width="1" opacity="1" d="M 127.5 77 L 134 77.5 L 127.5 78 L 127.5 77 Z " /><path fill="rgb(255,255,255)" stroke="rgb(255,255,255)" stroke-width="1" opacity="1" d="M 279.5 77 L 289 77.5 L 279.5 78 L 279.5 77 Z " /><path fill="rgb(255,255,255)" stroke="rgb(255,255,255)" stroke-width="1" opacity="1" d="M 316.5 77 L 315.5 79 L 316.5 77 Z " /><path fill="rgb(255,255,255)" stroke="rgb(255,255,255)" stroke-width="1" opacity="1" d="M 111.5 78 L 113.5 81 L 111.5 78 Z " /><path fill="rgb(255,255,255)" stroke="rgb(255,255,255)" stroke-width="1" opacity="1" d="M 56.5 79 L 57.5 81 L 56.5 79 Z " /><path fill="rgb(255,255,255)" stroke="rgb(255,255,255)" stroke-width="1" opacity="1" d="M 104.5 79 L 105.5 81 L 104.5 79 Z " /><path fill="rgb(255,255,255)" stroke="rgb(255,255,255)" stroke-width="1" opacity="1" d="M 304.5 79 L 303.5 81 L 304.5 79 Z " /><path fill="rgb(255,255,255)" stroke="rgb(255,255,255)" stroke-width="1" opacity="1" d="M 331.5 80 L 332.5 82 L 331.5 80 Z " /><path fill="rgb(255,255,255)" stroke="rgb(255,255,255)" stroke-width="1" opacity="1" d="M 108.5 81 L 109.5 83 L 108.5 81 Z " /><path fill="rgb(255,255,255)" stroke="rgb(255,255,255)" stroke-width="1" opacity="1" d="M 370.5 81 L 371.5 83 L 370.5 81 Z " /><path fill="rgb(255,255,255)" stroke="rgb(255,255,255)" stroke-width="1" opacity="1" d="M 412.5 81 L 413.5 83 L 412.5 81 Z " /><path fill="rgb(255,255,255)" stroke="rgb(255,255,255)" stroke-width="1" opacity="1" d="M 106.5 82 L 107.5 84 L 106.5 82 Z " /><path fill="rgb(255,255,255)" stroke="rgb(255,255,255)" stroke-width="1" opacity="1" d="M 208.5 82 L 209.5 84 L 208.5 82 Z " /><path fill="rgb(255,255,255)" stroke="rgb(255,255,255)" stroke-width="1" opacity="1" d="M 343.5 82 L 344.5 84 L 343.5 82 Z " /><path fill="rgb(255,255,255)" stroke="rgb(255,255,255)" stroke-width="1" opacity="1" d="M 425.5 82 L 426.5 84 L 425.5 82 Z " /><path fill="rgb(255,255,255)" stroke="rgb(255,255,255)" stroke-width="1" opacity="1" d="M 40.5 83 L 39.5 85 L 40.5 83 Z " /><path fill="rgb(255,255,255)" stroke="rgb(255,255,255)" stroke-width="1" opacity="1" d="M 95.5 84 L 96.5 86 L 95.5 84 Z " /><path fill="rgb(198,227,211)" stroke="rgb(198,227,211)" stroke-width="1" opacity="1" d="M 81.5 40 L 91 40.5 L 81.5 41 L 81.5 40 Z " /><path fill="rgb(198,227,211)" stroke="rgb(198,227,211)" stroke-width="1" opacity="1" d="M 127.5 40 L 138 40.5 L 127.5 41 L 127.5 40 Z " /><path fill="rgb(198,227,211)" stroke="rgb(198,227,211)" stroke-width="1" opacity="1" d="M 276.5 40 L 289 40.5 L 276.5 41 L 276.5 40 Z " /><path fill="rgb(198,227,211)" stroke="rgb(198,227,211)" stroke-width="1" opacity="1" d="M 74.5 41 L 77 41.5 L 74.5 42 L 74.5 41 Z " /><path fill="rgb(198,227,211)" stroke="rgb(198,227,211)" stroke-width="1" opacity="1" d="M 93.5 41 L 96 41.5 L 93.5 42 L 93.5 41 Z " /><path fill="rgb(198,227,211)" stroke="rgb(198,227,211)" stroke-width="1" opacity="1" d="M 140.5 41 L 143 42.5 Q 144.5 48.5 141.5 50 L 140 49.5 L 142 49 L 142 42.5 L 140.5 42 L 140.5 41 Z " /><path fill="rgb(198,227,211)" stroke="rgb(198,227,211)" stroke-width="1" opacity="1" d="M 150.5 41 L 151 86 L 180 86.5 L 150 87 L 150.5 41 Z " /><path fill="rgb(198,227,211)" stroke="rgb(198,227,211)" stroke-width="1" opacity="1" d="M 179.5 41 L 180 48.5 L 179 48.5 L 179.5 41 Z " /><path fill="rgb(198,227,211)" stroke="rgb(198,227,211)" stroke-width="1" opacity="1" d="M 185.5 41 L 186 86 L 193.5 86 L 194 85.5 L 194 59.5 L 194.5 57 Q 197.3 58.3 195 59.5 L 195 85.5 L 193.5 87 L 185.5 87 L 185 86.5 L 185.5 41 Z " /><path fill="rgb(198,227,211)" stroke="rgb(198,227,211)" stroke-width="1" opacity="1" d="M 212.5 41 L 213 70.5 L 211 69.5 L 212 68.5 L 212.5 41 Z " /><path fill="rgb(198,227,211)" stroke="rgb(198,227,211)" stroke-width="1" opacity="1" d="M 221.5 41 L 222 87 L 212.5 87 L 211 85.5 L 212.5 86 L 220.5 86 L 221 85.5 L 221.5 41 Z " /><path fill="rgb(198,227,211)" stroke="rgb(198,227,211)" stroke-width="1" opacity="1" d="M 225.5 41 L 226 49 L 239 49 L 239 85.5 L 239.5 86 L 247.5 86 L 247.5 87 L 239.5 87 L 238 85.5 L 238 50.5 L 237.5 50 L 225 50 L 225.5 41 Z " /><path fill="rgb(198,227,211)" stroke="rgb(198,227,211)" stroke-width="1" opacity="1" d="M 269.5 41 L 271 41.5 L 269 42 L 269 84.5 L 271.5 85 L 271.5 86 L 268 84.5 L 268 42.5 L 269.5 41 Z " /><path fill="rgb(198,227,211)" stroke="rgb(198,227,211)" stroke-width="1" opacity="1" d="M 347.5 41 L 348 85 L 355 85.5 L 347 86 L 347.5 41 Z " /><path fill="rgb(198,227,211)" stroke="rgb(198,227,211)" stroke-width="1" opacity="1" d="M 390.5 41 L 391 85 L 400 85 L 400 67.5 L 401 67.5 L 401 86 L 391.5 86 L 390 84.5 L 390.5 41 Z " /><path fill="rgb(198,227,211)" stroke="rgb(198,227,211)" stroke-width="1" opacity="1" d="M 400.5 41 L 401 58 L 404 58.5 L 401.5 59 L 400 57.5 L 400.5 41 Z " /><path fill="rgb(198,227,211)" stroke="rgb(198,227,211)" stroke-width="1" opacity="1" d="M 425.5 41 L 424.5 43 L 425.5 41 Z " /><path fill="rgb(198,227,211)" stroke="rgb(198,227,211)" stroke-width="1" opacity="1" d="M 195.5 42 L 196.5 44 L 195.5 42 Z " /><path fill="rgb(198,227,211)" stroke="rgb(198,227,211)" stroke-width="1" opacity="1" d="M 99.5 43 L 102.5 47 L 99.5 43 Z " /><path fill="rgb(198,227,211)" stroke="rgb(198,227,211)" stroke-width="1" opacity="1" d="M 118.5 43 L 117.5 45 L 118.5 43 Z " /><path fill="rgb(198,227,211)" stroke="rgb(198,227,211)" stroke-width="1" opacity="1" d="M 296.5 43 L 299.5 47 L 296.5 43 Z " /><path fill="rgb(198,227,211)" stroke="rgb(198,227,211)" stroke-width="1" opacity="1" d="M 413.5 44 L 412.5 46 L 413.5 44 Z " /><path fill="rgb(198,227,211)" stroke="rgb(198,227,211)" stroke-width="1" opacity="1" d="M 198.5 47 L 199.5 49 L 198.5 47 Z " /><path fill="rgb(198,227,211)" stroke="rgb(198,227,211)" stroke-width="1" opacity="1" d="M 411.5 47 L 410.5 49 L 411.5 47 Z " /><path fill="rgb(198,227,211)" stroke="rgb(198,227,211)" stroke-width="1" opacity="1" d="M 48 48 L 50 48.5 L 48.5 51 L 48 48 Z " /><path fill="rgb(198,227,211)" stroke="rgb(198,227,211)" stroke-width="1" opacity="1" d="M 82.5 48 L 83 62 L 89 62.5 L 83.5 63 L 82 61.5 L 82.5 48 Z " /><path fill="rgb(198,227,211)" stroke="rgb(198,227,211)" stroke-width="1" opacity="1" d="M 130.5 48 L 138 48.5 L 130.5 49 L 130.5 48 Z " /><path fill="rgb(198,227,211)" stroke="rgb(198,227,211)" stroke-width="1" opacity="1" d="M 93.5 49 L 94.5 51 L 93.5 49 Z " /><path fill="rgb(198,227,211)" stroke="rgb(198,227,211)" stroke-width="1" opacity="1" d="M 159.5 49 L 160 58.5 L 159 58.5 L 159.5 49 Z " /><path fill="rgb(198,227,211)" stroke="rgb(198,227,211)" stroke-width="1" opacity="1" d="M 248.5 49 L 261 49.5 L 248.5 50 L 248.5 49 Z " /><path fill="rgb(198,227,211)" stroke="rgb(198,227,211)" stroke-width="1" opacity="1" d="M 300.5 49 L 301 51.5 L 300 51.5 L 300.5 49 Z " /><path fill="rgb(198,227,211)" stroke="rgb(198,227,211)" stroke-width="1" opacity="1" d="M 104.5 50 L 105 59.5 L 104 59.5 L 104.5 50 Z " /><path fill="rgb(198,227,211)" stroke="rgb(198,227,211)" stroke-width="1" opacity="1" d="M 291.5 51 L 292 55.5 L 291 55.5 L 291.5 51 Z " /><path fill="rgb(198,227,211)" stroke="rgb(198,227,211)" stroke-width="1" opacity="1" d="M 418.5 52 L 417.5 54 L 418.5 52 Z " /><path fill="rgb(198,227,211)" stroke="rgb(198,227,211)" stroke-width="1" opacity="1" d="M 121.5 53 L 120.5 55 L 121.5 53 Z " /><path fill="rgb(198,227,211)" stroke="rgb(198,227,211)" stroke-width="1" opacity="1" d="M 364.5 53 L 365.5 55 L 364.5 53 Z " /><path fill="rgb(198,227,211)" stroke="rgb(198,227,211)" stroke-width="1" opacity="1" d="M 109.5 56 L 110 59.5 L 109 59.5 L 109.5 56 Z " /><path fill="rgb(198,227,211)" stroke="rgb(198,227,211)" stroke-width="1" opacity="1" d="M 95.5 57 L 96 58.5 L 91.5 62 L 91.5 61 L 95 58.5 L 95.5 57 Z " /><path fill="rgb(198,227,211)" stroke="rgb(198,227,211)" stroke-width="1" opacity="1" d="M 356.5 57 L 357 85.5 L 356 85.5 L 356.5 57 Z " /><path fill="rgb(198,227,211)" stroke="rgb(198,227,211)" stroke-width="1" opacity="1" d="M 299.5 58 L 296.5 62 L 299.5 58 Z " /><path fill="rgb(198,227,211)" stroke="rgb(198,227,211)" stroke-width="1" opacity="1" d="M 367.5 58 L 368.5 60 L 367.5 58 Z " /><path fill="rgb(198,227,211)" stroke="rgb(198,227,211)" stroke-width="1" opacity="1" d="M 176.5 59 L 177 66.5 L 176 66.5 L 176.5 59 Z " /><path fill="rgb(198,227,211)" stroke="rgb(198,227,211)" stroke-width="1" opacity="1" d="M 205.5 59 L 206.5 61 L 205.5 59 Z " /><path fill="rgb(198,227,211)" stroke="rgb(198,227,211)" stroke-width="1" opacity="1" d="M 196.5 60 L 197.5 62 L 196.5 60 Z " /><path fill="rgb(198,227,211)" stroke="rgb(198,227,211)" stroke-width="1" opacity="1" d="M 102.5 63 L 99.5 67 L 102.5 63 Z " /><path fill="rgb(198,227,211)" stroke="rgb(198,227,211)" stroke-width="1" opacity="1" d="M 360.5 63 L 361.5 65 L 360.5 63 Z " /><path fill="rgb(198,227,211)" stroke="rgb(198,227,211)" stroke-width="1" opacity="1" d="M 370.5 63 L 371.5 65 L 370.5 63 Z " /><path fill="rgb(198,227,211)" stroke="rgb(198,227,211)" stroke-width="1" opacity="1" d="M 135.5 64 L 144 64 L 144 85.5 Q 142.8 88.3 137.5 87 L 137.5 86 Q 142.9 86.6 143 85.5 L 143 65 L 135 65 L 135 78.5 L 134 78.5 L 134 65.5 L 135.5 64 Z " /><path fill="rgb(198,227,211)" stroke="rgb(198,227,211)" stroke-width="1" opacity="1" d="M 208.5 64 L 209.5 66 L 208.5 64 Z " /><path fill="rgb(198,227,211)" stroke="rgb(198,227,211)" stroke-width="1" opacity="1" d="M 298.5 64 L 299.5 66 L 298.5 64 Z " /><path fill="rgb(198,227,211)" stroke="rgb(198,227,211)" stroke-width="1" opacity="1" d="M 44.5 66 L 54 66.5 L 44.5 67 L 44.5 66 Z " /><path fill="rgb(198,227,211)" stroke="rgb(198,227,211)" stroke-width="1" opacity="1" d="M 278.5 66 L 286 66.5 L 278.5 67 L 278.5 66 Z " /><path fill="rgb(198,227,211)" stroke="rgb(198,227,211)" stroke-width="1" opacity="1" d="M 97.5 67 L 96.5 69 L 97.5 67 Z " /><path fill="rgb(198,227,211)" stroke="rgb(198,227,211)" stroke-width="1" opacity="1" d="M 159.5 67 L 160 78 L 180 78.5 L 160.5 79 L 159 77.5 L 159.5 67 Z " /><path fill="rgb(198,227,211)" stroke="rgb(198,227,211)" stroke-width="1" opacity="1" d="M 109.5 68 L 110 70.5 L 109 70.5 L 109.5 68 Z " /><path fill="rgb(198,227,211)" stroke="rgb(198,227,211)" stroke-width="1" opacity="1" d="M 363.5 68 L 364.5 70 L 363.5 68 Z " /><path fill="rgb(198,227,211)" stroke="rgb(198,227,211)" stroke-width="1" opacity="1" d="M 83.5 69 Q 88.3 68.3 89 71.5 L 86.5 70 L 83 70.5 L 83 85.5 L 81.5 87 L 73.5 87 L 73.5 86 L 82 86 L 82 70.5 L 83.5 69 Z " /><path fill="rgb(198,227,211)" stroke="rgb(198,227,211)" stroke-width="1" opacity="1" d="M 97.5 70 L 98.5 72 L 97.5 70 Z " /><path fill="rgb(198,227,211)" stroke="rgb(198,227,211)" stroke-width="1" opacity="1" d="M 417.5 71 L 418.5 73 L 417.5 71 Z " /><path fill="rgb(198,227,211)" stroke="rgb(198,227,211)" stroke-width="1" opacity="1" d="M 89.5 73 L 90.5 75 L 89.5 73 Z " /><path fill="rgb(198,227,211)" stroke="rgb(198,227,211)" stroke-width="1" opacity="1" d="M 99.5 73 L 100.5 75 L 99.5 73 Z " /><path fill="rgb(198,227,211)" stroke="rgb(198,227,211)" stroke-width="1" opacity="1" d="M 41 74 L 57 74.5 L 42.5 75 L 41.5 76 L 41 74 Z " /><path fill="rgb(198,227,211)" stroke="rgb(198,227,211)" stroke-width="1" opacity="1" d="M 121.5 74 L 126 77.5 L 124.5 78 L 121.5 74 Z " /><path fill="rgb(198,227,211)" stroke="rgb(198,227,211)" stroke-width="1" opacity="1" d="M 419.5 74 L 420.5 76 L 419.5 74 Z " /><path fill="rgb(198,227,211)" stroke="rgb(198,227,211)" stroke-width="1" opacity="1" d="M 91.5 76 L 92.5 78 L 91.5 76 Z " /><path fill="rgb(198,227,211)" stroke="rgb(198,227,211)" stroke-width="1" opacity="1" d="M 101.5 76 L 102.5 78 L 101.5 76 Z " /><path fill="rgb(198,227,211)" stroke="rgb(198,227,211)" stroke-width="1" opacity="1" d="M 206.5 77 L 207.5 79 L 206.5 77 Z " /><path fill="rgb(198,227,211)" stroke="rgb(198,227,211)" stroke-width="1" opacity="1" d="M 112.5 78 L 117.5 84 L 112.5 78 Z " /><path fill="rgb(198,227,211)" stroke="rgb(198,227,211)" stroke-width="1" opacity="1" d="M 127.5 78 L 130 78.5 L 127.5 79 L 127.5 78 Z " /><path fill="rgb(198,227,211)" stroke="rgb(198,227,211)" stroke-width="1" opacity="1" d="M 278.5 78 L 282 78.5 L 278.5 79 L 278.5 78 Z " /><path fill="rgb(198,227,211)" stroke="rgb(198,227,211)" stroke-width="1" opacity="1" d="M 284.5 78 L 289 78.5 L 284.5 79 L 284.5 78 Z " /><path fill="rgb(198,227,211)" stroke="rgb(198,227,211)" stroke-width="1" opacity="1" d="M 411.5 78 L 412.5 80 L 411.5 78 Z " /><path fill="rgb(198,227,211)" stroke="rgb(198,227,211)" stroke-width="1" opacity="1" d="M 93.5 79 L 94.5 81 L 93.5 79 Z " /><path fill="rgb(198,227,211)" stroke="rgb(198,227,211)" stroke-width="1" opacity="1" d="M 103.5 79 L 104.5 81 L 103.5 79 Z " /><path fill="rgb(198,227,211)" stroke="rgb(198,227,211)" stroke-width="1" opacity="1" d="M 300.5 79 L 297.5 83 L 300.5 79 Z " /><path fill="rgb(198,227,211)" stroke="rgb(198,227,211)" stroke-width="1" opacity="1" d="M 413.5 81 L 414.5 83 L 413.5 81 Z " /><path fill="rgb(198,227,211)" stroke="rgb(198,227,211)" stroke-width="1" opacity="1" d="M 105.5 82 L 106.5 84 L 105.5 82 Z " /><path fill="rgb(198,227,211)" stroke="rgb(198,227,211)" stroke-width="1" opacity="1" d="M 209.5 82 L 210.5 84 L 209.5 82 Z " /><path fill="rgb(198,227,211)" stroke="rgb(198,227,211)" stroke-width="1" opacity="1" d="M 29.5 84 L 30 86 L 37.5 86 L 38.5 85 L 37.5 87 L 29 87 L 29.5 84 Z " /><path fill="rgb(198,227,211)" stroke="rgb(198,227,211)" stroke-width="1" opacity="1" d="M 59.5 84 L 60 86 L 69 86.5 L 60.5 87 L 59.5 84 Z " /><path fill="rgb(198,227,211)" stroke="rgb(198,227,211)" stroke-width="1" opacity="1" d="M 373.5 84 L 374.5 85 L 384 85.5 L 374.5 86 L 373.5 84 Z " /><path fill="rgb(198,227,211)" stroke="rgb(198,227,211)" stroke-width="1" opacity="1" d="M 415.5 84 L 416.5 85 L 425 85.5 L 416.5 86 L 415.5 84 Z " /><path fill="rgb(198,227,211)" stroke="rgb(198,227,211)" stroke-width="1" opacity="1" d="M 97.5 85 L 98.5 86 L 106.5 86 L 108 85.5 L 107.5 87 L 98.5 87 L 97.5 85 Z " /><path fill="rgb(198,227,211)" stroke="rgb(198,227,211)" stroke-width="1" opacity="1" d="M 288.5 85 L 291 85.5 L 288.5 86 L 288.5 85 Z " /><path fill="rgb(198,227,211)" stroke="rgb(198,227,211)" stroke-width="1" opacity="1" d="M 305.5 85 L 313 85.5 L 305.5 86 L 305.5 85 Z " /><path fill="rgb(198,227,211)" stroke="rgb(198,227,211)" stroke-width="1" opacity="1" d="M 336.5 85 L 342 85.5 L 336.5 86 L 336.5 85 Z " /><path fill="rgb(198,227,211)" stroke="rgb(198,227,211)" stroke-width="1" opacity="1" d="M 125.5 86 L 129 86.5 L 125.5 87 L 125.5 86 Z " /><path fill="rgb(250,252,251)" stroke="rgb(250,252,251)" stroke-width="1" opacity="1" d="M 277.5 38 L 288 38.5 L 277.5 39 L 277.5 38 Z " /><path fill="rgb(250,252,251)" stroke="rgb(250,252,251)" stroke-width="1" opacity="1" d="M 269.5 39 L 272 39.5 L 269.5 40 L 269.5 39 Z " /><path fill="rgb(250,252,251)" stroke="rgb(250,252,251)" stroke-width="1" opacity="1" d="M 42.5 40 L 55.5 40 L 57 41.5 L 55.5 41 L 42.5 41 L 41.5 42 L 42.5 40 Z " /><path fill="rgb(250,252,251)" stroke="rgb(250,252,251)" stroke-width="1" opacity="1" d="M 78.5 40 L 81 40.5 L 78.5 41 L 78.5 40 Z " /><path fill="rgb(250,252,251)" stroke="rgb(250,252,251)" stroke-width="1" opacity="1" d="M 150.5 40 L 180 40.5 L 150.5 41 L 150.5 40 Z " /><path fill="rgb(250,252,251)" stroke="rgb(250,252,251)" stroke-width="1" opacity="1" d="M 185.5 40 L 194.5 40 L 196 41.5 L 194.5 41 L 185.5 41 L 185.5 40 Z " /><path fill="rgb(250,252,251)" stroke="rgb(250,252,251)" stroke-width="1" opacity="1" d="M 212.5 40 L 222 40.5 L 212.5 41 L 212.5 40 Z " /><path fill="rgb(250,252,251)" stroke="rgb(250,252,251)" stroke-width="1" opacity="1" d="M 225.5 40 L 260.5 40 L 262 41.5 L 261.5 50 L 261 41 L 225.5 41 L 225.5 40 Z " /><path fill="rgb(250,252,251)" stroke="rgb(250,252,251)" stroke-width="1" opacity="1" d="M 273.5 40 L 276 40.5 L 273.5 41 L 273.5 40 Z " /><path fill="rgb(250,252,251)" stroke="rgb(250,252,251)" stroke-width="1" opacity="1" d="M 294.5 40 L 293.5 42 L 294.5 40 Z " /><path fill="rgb(250,252,251)" stroke="rgb(250,252,251)" stroke-width="1" opacity="1" d="M 317.5 40 L 331 40.5 L 317.5 41 L 317.5 40 Z " /><path fill="rgb(250,252,251)" stroke="rgb(250,252,251)" stroke-width="1" opacity="1" d="M 347.5 40 L 357 40.5 L 347.5 41 L 347.5 40 Z " /><path fill="rgb(250,252,251)" stroke="rgb(250,252,251)" stroke-width="1" opacity="1" d="M 375.5 40 L 384 40.5 L 375 41 L 374.5 66 L 374 41.5 L 375.5 40 Z " /><path fill="rgb(250,252,251)" stroke="rgb(250,252,251)" stroke-width="1" opacity="1" d="M 390.5 40 L 401 40.5 L 390.5 41 L 390.5 40 Z " /><path fill="rgb(250,252,251)" stroke="rgb(250,252,251)" stroke-width="1" opacity="1" d="M 415.5 40 L 426 40.5 L 415.5 41 L 415.5 40 Z " /><path fill="rgb(250,252,251)" stroke="rgb(250,252,251)" stroke-width="1" opacity="1" d="M 73.5 41 L 73 42.5 L 72.5 86 L 72 42.5 L 73.5 41 Z " /><path fill="rgb(250,252,251)" stroke="rgb(250,252,251)" stroke-width="1" opacity="1" d="M 223.5 41 L 224 49.5 L 223 49.5 L 223.5 41 Z " /><path fill="rgb(250,252,251)" stroke="rgb(250,252,251)" stroke-width="1" opacity="1" d="M 296.5 41 L 295.5 43 L 296.5 41 Z " /><path fill="rgb(250,252,251)" stroke="rgb(250,252,251)" stroke-width="1" opacity="1" d="M 314.5 41 L 316 43.5 L 314 42.5 L 314.5 41 Z " /><path fill="rgb(250,252,251)" stroke="rgb(250,252,251)" stroke-width="1" opacity="1" d="M 332.5 41 L 331.5 43 L 332.5 41 Z " /><path fill="rgb(250,252,251)" stroke="rgb(250,252,251)" stroke-width="1" opacity="1" d="M 345.5 41 L 346 85.5 L 345 85.5 L 344 81.5 L 345 80.5 L 345.5 41 Z " /><path fill="rgb(250,252,251)" stroke="rgb(250,252,251)" stroke-width="1" opacity="1" d="M 359.5 41 L 358.5 43 L 359.5 41 Z " /><path fill="rgb(250,252,251)" stroke="rgb(250,252,251)" stroke-width="1" opacity="1" d="M 385.5 41 L 386 84.5 L 385 84.5 L 385.5 41 Z " /><path fill="rgb(250,252,251)" stroke="rgb(250,252,251)" stroke-width="1" opacity="1" d="M 402.5 41 L 403.5 56 L 405 55.5 L 404.5 58 L 401 56.5 L 402 55.5 L 402.5 41 Z " /><path fill="rgb(250,252,251)" stroke="rgb(250,252,251)" stroke-width="1" opacity="1" d="M 413.5 41 L 413.5 44 Q 410.5 42.5 413.5 41 Z " /><path fill="rgb(250,252,251)" stroke="rgb(250,252,251)" stroke-width="1" opacity="1" d="M 298.5 43 L 302 47.5 L 300 48.5 L 301 46.5 L 298.5 43 Z " /><path fill="rgb(250,252,251)" stroke="rgb(250,252,251)" stroke-width="1" opacity="1" d="M 360.5 43 L 364 48.5 L 362 49.5 L 362.5 48 L 361 47.5 L 361 45.5 L 360.5 44 L 359 44.5 L 360.5 43 Z " /><path fill="rgb(250,252,251)" stroke="rgb(250,252,251)" stroke-width="1" opacity="1" d="M 424.5 43 Q 427.5 44.5 424.5 46 L 424.5 43 Z " /><path fill="rgb(250,252,251)" stroke="rgb(250,252,251)" stroke-width="1" opacity="1" d="M 116.5 44 L 112.5 49 L 116.5 44 Z " /><path fill="rgb(250,252,251)" stroke="rgb(250,252,251)" stroke-width="1" opacity="1" d="M 313.5 44 L 315 46.5 L 313 45.5 L 313.5 44 Z " /><path fill="rgb(250,252,251)" stroke="rgb(250,252,251)" stroke-width="1" opacity="1" d="M 411.5 44 L 411.5 47 L 409 48.5 L 409.5 50 L 408 50.5 L 408.5 52 Q 405.8 50.8 408 49.5 L 411.5 44 Z " /><path fill="rgb(250,252,251)" stroke="rgb(250,252,251)" stroke-width="1" opacity="1" d="M 422.5 46 Q 425.5 47.5 422.5 49 L 422.5 46 Z " /><path fill="rgb(250,252,251)" stroke="rgb(250,252,251)" stroke-width="1" opacity="1" d="M 334.5 47 L 335 48.5 L 333 49.5 L 334.5 47 Z " /><path fill="rgb(250,252,251)" stroke="rgb(250,252,251)" stroke-width="1" opacity="1" d="M 279.5 48 L 280.5 50 L 279 49.5 L 278.5 59 L 278 49.5 L 279.5 48 Z " /><path fill="rgb(250,252,251)" stroke="rgb(250,252,251)" stroke-width="1" opacity="1" d="M 160.5 49 L 180 49.5 L 160.5 50 L 160.5 49 Z " /><path fill="rgb(250,252,251)" stroke="rgb(250,252,251)" stroke-width="1" opacity="1" d="M 282.5 49 L 285 49.5 L 282.5 50 L 282.5 49 Z " /><path fill="rgb(250,252,251)" stroke="rgb(250,252,251)" stroke-width="1" opacity="1" d="M 302.5 49 L 303 53.5 L 302 53.5 L 302.5 49 Z " /><path fill="rgb(250,252,251)" stroke="rgb(250,252,251)" stroke-width="1" opacity="1" d="M 420.5 49 Q 423.2 50.3 421 51.5 L 417.5 57 L 417.5 54 L 420 52.5 L 421 50.5 L 420.5 49 Z " /><path fill="rgb(250,252,251)" stroke="rgb(250,252,251)" stroke-width="1" opacity="1" d="M 288.5 50 Q 291.3 49.4 290 55.5 Q 292.3 56.8 289.5 58 Q 286.8 56.8 289 55.5 L 288.5 50 Z " /><path fill="rgb(250,252,251)" stroke="rgb(250,252,251)" stroke-width="1" opacity="1" d="M 364.5 50 Q 367.5 51.5 364.5 53 L 364.5 50 Z " /><path fill="rgb(250,252,251)" stroke="rgb(250,252,251)" stroke-width="1" opacity="1" d="M 123.5 51 Q 126.5 52.5 123.5 54 Q 120.5 52.5 123.5 51 Z " /><path fill="rgb(250,252,251)" stroke="rgb(250,252,251)" stroke-width="1" opacity="1" d="M 248.5 51 L 249 86.5 L 248 86.5 L 248.5 51 Z " /><path fill="rgb(250,252,251)" stroke="rgb(250,252,251)" stroke-width="1" opacity="1" d="M 311.5 51 L 313 53.5 L 311 52.5 L 311.5 51 Z " /><path fill="rgb(250,252,251)" stroke="rgb(250,252,251)" stroke-width="1" opacity="1" d="M 322.5 52 L 325 52.5 L 323.5 56 L 322.5 52 Z " /><path fill="rgb(250,252,251)" stroke="rgb(250,252,251)" stroke-width="1" opacity="1" d="M 406.5 52 L 406.5 55 Q 403.5 53.5 406.5 52 Z " /><path fill="rgb(250,252,251)" stroke="rgb(250,252,251)" stroke-width="1" opacity="1" d="M 366.5 53 L 369 56.5 L 367 57.5 L 367 55.5 L 366.5 53 Z " /><path fill="rgb(250,252,251)" stroke="rgb(250,252,251)" stroke-width="1" opacity="1" d="M 95.5 54 L 96 56.5 L 95 56.5 L 95.5 54 Z " /><path fill="rgb(250,252,251)" stroke="rgb(250,252,251)" stroke-width="1" opacity="1" d="M 310.5 54 L 312 56.5 L 310 55.5 L 310.5 54 Z " /><path fill="rgb(250,252,251)" stroke="rgb(250,252,251)" stroke-width="1" opacity="1" d="M 49.5 55 L 48.5 57 L 49.5 55 Z " /><path fill="rgb(250,252,251)" stroke="rgb(250,252,251)" stroke-width="1" opacity="1" d="M 321.5 56 L 323 58.5 L 322 58.5 L 321.5 56 Z " /><path fill="rgb(250,252,251)" stroke="rgb(250,252,251)" stroke-width="1" opacity="1" d="M 107.5 57 L 108 59 L 106 58.5 L 107.5 57 Z " /><path fill="rgb(250,252,251)" stroke="rgb(250,252,251)" stroke-width="1" opacity="1" d="M 337.5 57 L 338 58.5 L 336 59.5 L 337.5 57 Z " /><path fill="rgb(250,252,251)" stroke="rgb(250,252,251)" stroke-width="1" opacity="1" d="M 415.5 57 Q 418.3 58.3 416 59.5 L 414.5 62 L 413.5 60 L 415 60.5 L 416 58.5 L 415.5 57 Z " /><path fill="rgb(250,252,251)" stroke="rgb(250,252,251)" stroke-width="1" opacity="1" d="M 93.5 58 L 92.5 60 L 93.5 58 Z " /><path fill="rgb(250,252,251)" stroke="rgb(250,252,251)" stroke-width="1" opacity="1" d="M 194.5 58 L 195.5 60 L 194.5 58 Z " /><path fill="rgb(250,252,251)" stroke="rgb(250,252,251)" stroke-width="1" opacity="1" d="M 284.5 58 L 287 58.5 L 284.5 59 L 284.5 58 Z " /><path fill="rgb(250,252,251)" stroke="rgb(250,252,251)" stroke-width="1" opacity="1" d="M 369.5 58 L 371.5 61 L 373 60.5 L 373 62.5 L 372.5 64 L 371.5 62 L 370 62.5 L 370 60.5 L 369.5 58 Z " /><path fill="rgb(250,252,251)" stroke="rgb(250,252,251)" stroke-width="1" opacity="1" d="M 300.5 59 L 298.5 62 L 300.5 59 Z " /><path fill="rgb(250,252,251)" stroke="rgb(250,252,251)" stroke-width="1" opacity="1" d="M 326.5 59 L 326 60.5 L 325.5 62 L 325 60.5 L 326.5 59 Z " /><path fill="rgb(250,252,251)" stroke="rgb(250,252,251)" stroke-width="1" opacity="1" d="M 308.5 61 L 310 63.5 L 308 62.5 L 308.5 61 Z " /><path fill="rgb(250,252,251)" stroke="rgb(250,252,251)" stroke-width="1" opacity="1" d="M 321.5 61 L 322 63.5 L 321 63.5 L 321.5 61 Z " /><path fill="rgb(250,252,251)" stroke="rgb(250,252,251)" stroke-width="1" opacity="1" d="M 108.5 62 L 109 65.5 L 108 65.5 L 108.5 62 Z " /><path fill="rgb(250,252,251)" stroke="rgb(250,252,251)" stroke-width="1" opacity="1" d="M 197.5 62 L 197 63.5 L 196.5 65 L 196 63.5 L 197.5 62 Z " /><path fill="rgb(250,252,251)" stroke="rgb(250,252,251)" stroke-width="1" opacity="1" d="M 358.5 62 L 360 64.5 L 359 65.5 L 358.5 85 L 358.5 62 Z " /><path fill="rgb(250,252,251)" stroke="rgb(250,252,251)" stroke-width="1" opacity="1" d="M 299.5 63 L 302.5 67 L 300 66.5 L 301 65.5 L 299.5 63 Z " /><path fill="rgb(250,252,251)" stroke="rgb(250,252,251)" stroke-width="1" opacity="1" d="M 339.5 63 L 340 65.5 L 338 66.5 L 339.5 63 Z " /><path fill="rgb(250,252,251)" stroke="rgb(250,252,251)" stroke-width="1" opacity="1" d="M 414.5 63 L 417 66.5 L 415 67.5 L 415 65.5 L 414.5 64 L 413 64.5 L 414.5 63 Z " /><path fill="rgb(250,252,251)" stroke="rgb(250,252,251)" stroke-width="1" opacity="1" d="M 307.5 64 L 309 66.5 L 307 65.5 L 307.5 64 Z " /><path fill="rgb(250,252,251)" stroke="rgb(250,252,251)" stroke-width="1" opacity="1" d="M 319.5 65 L 328 65.5 L 319.5 66 L 319.5 65 Z " /><path fill="rgb(250,252,251)" stroke="rgb(250,252,251)" stroke-width="1" opacity="1" d="M 361.5 65 L 362 67.5 L 363 69.5 L 361 68.5 L 360 66.5 L 361.5 65 Z " /><path fill="rgb(250,252,251)" stroke="rgb(250,252,251)" stroke-width="1" opacity="1" d="M 119.5 66 L 120 68.5 L 119 68.5 L 119.5 66 Z " /><path fill="rgb(250,252,251)" stroke="rgb(250,252,251)" stroke-width="1" opacity="1" d="M 98.5 67 L 99.5 69 L 98.5 67 Z " /><path fill="rgb(250,252,251)" stroke="rgb(250,252,251)" stroke-width="1" opacity="1" d="M 160.5 67 L 177 67.5 L 160.5 68 L 160.5 67 Z " /><path fill="rgb(250,252,251)" stroke="rgb(250,252,251)" stroke-width="1" opacity="1" d="M 278.5 67 L 279.5 68 L 287.5 68 L 289 67.5 L 287.5 69 L 279 69 L 279 75.5 L 280.5 76 L 280.5 77 L 278.5 78 L 278.5 67 Z " /><path fill="rgb(250,252,251)" stroke="rgb(250,252,251)" stroke-width="1" opacity="1" d="M 340.5 67 L 341 68.5 L 339 69.5 L 340.5 67 Z " /><path fill="rgb(250,252,251)" stroke="rgb(250,252,251)" stroke-width="1" opacity="1" d="M 373.5 67 Q 375.8 66.3 375 68.5 L 373.5 67 Z " /><path fill="rgb(250,252,251)" stroke="rgb(250,252,251)" stroke-width="1" opacity="1" d="M 401.5 67 L 404 67.5 L 401.5 68 L 401.5 67 Z " /><path fill="rgb(250,252,251)" stroke="rgb(250,252,251)" stroke-width="1" opacity="1" d="M 303.5 68 L 304 70.5 L 303 70.5 L 303.5 68 Z " /><path fill="rgb(250,252,251)" stroke="rgb(250,252,251)" stroke-width="1" opacity="1" d="M 417.5 68 Q 420.5 69.5 417.5 71 L 417.5 68 Z " /><path fill="rgb(250,252,251)" stroke="rgb(250,252,251)" stroke-width="1" opacity="1" d="M 121.5 69 L 122 70.5 L 120 71.5 L 121.5 69 Z " /><path fill="rgb(250,252,251)" stroke="rgb(250,252,251)" stroke-width="1" opacity="1" d="M 289.5 69 Q 291.8 68.3 291 70.5 L 289.5 69 Z " /><path fill="rgb(250,252,251)" stroke="rgb(250,252,251)" stroke-width="1" opacity="1" d="M 402 69 L 404.5 70 L 406 69.5 L 405.5 72 L 403 70.5 L 402.5 85 L 402 69 Z " /><path fill="rgb(250,252,251)" stroke="rgb(250,252,251)" stroke-width="1" opacity="1" d="M 364.5 70 L 365 72.5 L 365.5 74 L 367 73.5 L 366.5 75 L 368 75.5 L 367.5 78 L 363 71.5 L 364.5 70 Z " /><path fill="rgb(250,252,251)" stroke="rgb(250,252,251)" stroke-width="1" opacity="1" d="M 292.5 71 L 293 74.5 L 292 74.5 L 292.5 71 Z " /><path fill="rgb(250,252,251)" stroke="rgb(250,252,251)" stroke-width="1" opacity="1" d="M 305.5 71 L 307 73.5 L 305 72.5 L 305.5 71 Z " /><path fill="rgb(250,252,251)" stroke="rgb(250,252,251)" stroke-width="1" opacity="1" d="M 419.5 71 Q 422.5 72.5 419.5 74 L 419.5 71 Z " /><path fill="rgb(250,252,251)" stroke="rgb(250,252,251)" stroke-width="1" opacity="1" d="M 407.5 72 L 408 74.5 L 408.5 76 L 410 75.5 L 410 77.5 L 411.5 80 L 413 80.5 Q 410.7 81.7 413.5 83 L 415 83.5 L 413 84.5 L 406 73.5 L 407.5 72 Z " /><path fill="rgb(250,252,251)" stroke="rgb(250,252,251)" stroke-width="1" opacity="1" d="M 123.5 74 L 124.5 76 L 123.5 74 Z " /><path fill="rgb(250,252,251)" stroke="rgb(250,252,251)" stroke-width="1" opacity="1" d="M 304.5 74 L 305 75.5 L 303 76.5 L 304.5 74 Z " /><path fill="rgb(250,252,251)" stroke="rgb(250,252,251)" stroke-width="1" opacity="1" d="M 342.5 74 L 343 75.5 L 341 76.5 L 342.5 74 Z " /><path fill="rgb(250,252,251)" stroke="rgb(250,252,251)" stroke-width="1" opacity="1" d="M 421.5 74 L 429 85.5 L 428 85.5 L 427.5 84 L 426 84.5 L 426 82.5 L 425.5 81 L 424 81.5 L 424 79.5 L 423.5 78 L 422 78.5 L 422 76.5 L 421.5 74 Z " /><path fill="rgb(250,252,251)" stroke="rgb(250,252,251)" stroke-width="1" opacity="1" d="M 56.5 75 L 56 76.5 L 55.5 78 L 54.5 76 L 56.5 75 Z " /><path fill="rgb(250,252,251)" stroke="rgb(250,252,251)" stroke-width="1" opacity="1" d="M 290.5 75 L 291.5 77 L 290.5 75 Z " /><path fill="rgb(250,252,251)" stroke="rgb(250,252,251)" stroke-width="1" opacity="1" d="M 317 75 L 319 75.5 L 317 76.5 L 317 75 Z " /><path fill="rgb(250,252,251)" stroke="rgb(250,252,251)" stroke-width="1" opacity="1" d="M 286.5 76 L 290 77.5 L 288.5 77 Q 285.5 77.5 286.5 76 Z " /><path fill="rgb(250,252,251)" stroke="rgb(250,252,251)" stroke-width="1" opacity="1" d="M 331.5 77 L 331 78.5 L 330.5 80 L 330 78.5 L 331.5 77 Z " /><path fill="rgb(250,252,251)" stroke="rgb(250,252,251)" stroke-width="1" opacity="1" d="M 343.5 77 L 344 78.5 L 342 79.5 L 343.5 77 Z " /><path fill="rgb(250,252,251)" stroke="rgb(250,252,251)" stroke-width="1" opacity="1" d="M 130.5 78 L 134 78.5 L 130.5 79 L 130.5 78 Z " /><path fill="rgb(250,252,251)" stroke="rgb(250,252,251)" stroke-width="1" opacity="1" d="M 180.5 78 L 181 86.5 L 180 86.5 L 180.5 78 Z " /><path fill="rgb(250,252,251)" stroke="rgb(250,252,251)" stroke-width="1" opacity="1" d="M 303.5 78 L 302 80.5 L 303 81.5 L 304 83.5 L 302 82.5 L 301.5 81 L 300 81.5 L 303.5 78 Z " /><path fill="rgb(250,252,251)" stroke="rgb(250,252,251)" stroke-width="1" opacity="1" d="M 369.5 78 L 368.5 80 L 369.5 78 Z " /><path fill="rgb(250,252,251)" stroke="rgb(250,252,251)" stroke-width="1" opacity="1" d="M 370.5 80 L 370.5 83 Q 367.5 81.5 370.5 80 Z " /><path fill="rgb(250,252,251)" stroke="rgb(250,252,251)" stroke-width="1" opacity="1" d="M 314.5 81 L 316 83.5 L 315 83.5 L 314.5 81 Z " /><path fill="rgb(250,252,251)" stroke="rgb(250,252,251)" stroke-width="1" opacity="1" d="M 95.5 83 L 96.5 85 L 95.5 83 Z " /><path fill="rgb(250,252,251)" stroke="rgb(250,252,251)" stroke-width="1" opacity="1" d="M 296.5 83 L 299 83.5 Q 296.9 86.8 296.5 83 Z " /><path fill="rgb(250,252,251)" stroke="rgb(250,252,251)" stroke-width="1" opacity="1" d="M 372.5 83 L 371.5 85 L 372.5 83 Z " /><path fill="rgb(250,252,251)" stroke="rgb(250,252,251)" stroke-width="1" opacity="1" d="M 294.5 84 L 295.5 86 L 294.5 84 Z " /><path fill="rgb(250,252,251)" stroke="rgb(250,252,251)" stroke-width="1" opacity="1" d="M 291.5 85 L 294 86.5 L 292.5 87 L 291.5 85 Z " /><path fill="rgb(250,252,251)" stroke="rgb(250,252,251)" stroke-width="1" opacity="1" d="M 275.5 86 L 286 86.5 L 275.5 87 L 275.5 86 Z " /><path fill="rgb(250,252,251)" stroke="rgb(250,252,251)" stroke-width="1" opacity="1" d="M 269.5 87 L 273 87.5 L 269.5 88 L 269.5 87 Z " /><path fill="rgb(250,252,251)" stroke="rgb(250,252,251)" stroke-width="1" opacity="1" d="M 287.5 87 L 290 87.5 L 287.5 88 L 287.5 87 Z " /><path fill="rgb(250,252,251)" stroke="rgb(250,252,251)" stroke-width="1" opacity="1" d="M 304.5 87 L 313 87.5 L 304.5 88 L 304.5 87 Z " /><path fill="rgb(250,252,251)" stroke="rgb(250,252,251)" stroke-width="1" opacity="1" d="M 335.5 87 L 343 87.5 L 335.5 88 L 335.5 87 Z " /><path fill="rgb(250,252,251)" stroke="rgb(250,252,251)" stroke-width="1" opacity="1" d="M 348.5 87 L 356 87.5 L 348.5 88 L 348.5 87 Z " /><path fill="rgb(250,252,251)" stroke="rgb(250,252,251)" stroke-width="1" opacity="1" d="M 374.5 87 L 383 87.5 L 374.5 88 L 374.5 87 Z " /><path fill="rgb(250,252,251)" stroke="rgb(250,252,251)" stroke-width="1" opacity="1" d="M 391.5 87 L 400 87.5 L 391.5 88 L 391.5 87 Z " /><path fill="rgb(250,252,251)" stroke="rgb(250,252,251)" stroke-width="1" opacity="1" d="M 416.5 87 L 426 87.5 L 416.5 88 L 416.5 87 Z " /><path fill="rgb(253,253,253)" stroke="rgb(253,253,253)" stroke-width="1" opacity="1" d="M 80.5 38 L 92 38.5 L 80.5 39 L 80.5 38 Z " /><path fill="rgb(253,253,253)" stroke="rgb(253,253,253)" stroke-width="1" opacity="1" d="M 127.5 38 L 138 38.5 L 127.5 39 L 127.5 38 Z " /><path fill="rgb(253,253,253)" stroke="rgb(253,253,253)" stroke-width="1" opacity="1" d="M 274.5 38 L 277 38.5 L 274.5 39 L 274.5 38 Z " /><path fill="rgb(253,253,253)" stroke="rgb(253,253,253)" stroke-width="1" opacity="1" d="M 317.5 38 L 330 38.5 L 317.5 39 L 317.5 38 Z " /><path fill="rgb(253,253,253)" stroke="rgb(253,253,253)" stroke-width="1" opacity="1" d="M 348.5 38 L 356 38.5 L 348.5 39 L 348.5 38 Z " /><path fill="rgb(253,253,253)" stroke="rgb(253,253,253)" stroke-width="1" opacity="1" d="M 375.5 38 L 383 38.5 L 375.5 39 L 375.5 38 Z " /><path fill="rgb(253,253,253)" stroke="rgb(253,253,253)" stroke-width="1" opacity="1" d="M 391.5 38 L 400 38.5 L 391.5 39 L 391.5 38 Z " /><path fill="rgb(253,253,253)" stroke="rgb(253,253,253)" stroke-width="1" opacity="1" d="M 416.5 38 L 425 38.5 L 416.5 39 L 416.5 38 Z " /><path fill="rgb(253,253,253)" stroke="rgb(253,253,253)" stroke-width="1" opacity="1" d="M 73.5 39 L 77 39.5 L 73.5 40 L 73.5 39 Z " /><path fill="rgb(253,253,253)" stroke="rgb(253,253,253)" stroke-width="1" opacity="1" d="M 93.5 39 L 96 39.5 L 93.5 40 L 93.5 39 Z " /><path fill="rgb(253,253,253)" stroke="rgb(253,253,253)" stroke-width="1" opacity="1" d="M 122.5 39 L 125 39.5 L 120.5 41 L 120.5 40 L 122.5 39 Z " /><path fill="rgb(253,253,253)" stroke="rgb(253,253,253)" stroke-width="1" opacity="1" d="M 140.5 39 L 142 39.5 L 139.5 41 L 140.5 39 Z " /><path fill="rgb(253,253,253)" stroke="rgb(253,253,253)" stroke-width="1" opacity="1" d="M 99.5 41 Q 105.4 43.6 107 50.5 L 106 50.5 L 99.5 41 Z " /><path fill="rgb(253,253,253)" stroke="rgb(253,253,253)" stroke-width="1" opacity="1" d="M 118.5 41 L 117.5 43 L 118.5 41 Z " /><path fill="rgb(253,253,253)" stroke="rgb(253,253,253)" stroke-width="1" opacity="1" d="M 148.5 41 L 149 43.5 L 149 84.5 L 148 85.5 L 148.5 87 Q 145.8 85.8 148 84.5 L 148 43.5 L 147 42.5 L 148.5 41 Z " /><path fill="rgb(253,253,253)" stroke="rgb(253,253,253)" stroke-width="1" opacity="1" d="M 181.5 41 L 184 41.5 L 184 43.5 L 184 84.5 L 183 85.5 L 183.5 87 Q 180.8 85.8 183 84.5 L 182.5 43 L 181.5 47 L 181 43.5 L 181.5 41 Z " /><path fill="rgb(253,253,253)" stroke="rgb(253,253,253)" stroke-width="1" opacity="1" d="M 197.5 41 L 209.5 61 L 210.5 43 L 211 63 L 208 61.5 L 202 50 L 200 49.5 Q 202.5 48 199 46.5 L 197.5 41 Z " /><path fill="rgb(253,253,253)" stroke="rgb(253,253,253)" stroke-width="1" opacity="1" d="M 58.5 43 L 61 48.5 L 60 48.5 L 58.5 43 Z " /><path fill="rgb(253,253,253)" stroke="rgb(253,253,253)" stroke-width="1" opacity="1" d="M 115.5 43 L 112 47.5 L 108.5 53 L 109 51.5 Q 110.4 45.4 115.5 43 Z " /><path fill="rgb(253,253,253)" stroke="rgb(253,253,253)" stroke-width="1" opacity="1" d="M 144.5 43 L 145 47.5 L 144 47.5 L 144.5 43 Z " /><path fill="rgb(253,253,253)" stroke="rgb(253,253,253)" stroke-width="1" opacity="1" d="M 266.5 43 L 267 83.5 L 266 83.5 L 266.5 43 Z " /><path fill="rgb(253,253,253)" stroke="rgb(253,253,253)" stroke-width="1" opacity="1" d="M 372.5 43 L 373 59.5 L 371.5 63 L 372 59.5 L 372.5 43 Z " /><path fill="rgb(253,253,253)" stroke="rgb(253,253,253)" stroke-width="1" opacity="1" d="M 388.5 43 L 389 83.5 L 388 83.5 L 388.5 43 Z " /><path fill="rgb(253,253,253)" stroke="rgb(253,253,253)" stroke-width="1" opacity="1" d="M 39.5 44 L 39 45.5 L 36.5 53 L 36 51.5 L 39.5 44 Z " /><path fill="rgb(253,253,253)" stroke="rgb(253,253,253)" stroke-width="1" opacity="1" d="M 333.5 45 L 334.5 47 L 333.5 45 Z " /><path fill="rgb(253,253,253)" stroke="rgb(253,253,253)" stroke-width="1" opacity="1" d="M 84.5 49 L 85 51.5 L 84.5 59 L 83 50.5 L 84.5 49 Z " /><path fill="rgb(253,253,253)" stroke="rgb(253,253,253)" stroke-width="1" opacity="1" d="M 281.5 49 L 280.5 51 L 281.5 49 Z " /><path fill="rgb(253,253,253)" stroke="rgb(253,253,253)" stroke-width="1" opacity="1" d="M 364.5 49 L 365.5 51 L 364.5 49 Z " /><path fill="rgb(253,253,253)" stroke="rgb(253,253,253)" stroke-width="1" opacity="1" d="M 59.5 50 L 62 51.5 L 64 58.5 L 63 58.5 L 61 51 L 59.5 50 Z " /><path fill="rgb(253,253,253)" stroke="rgb(253,253,253)" stroke-width="1" opacity="1" d="M 90.5 50 L 94 51.5 L 92.5 52 L 90.5 50 Z " /><path fill="rgb(253,253,253)" stroke="rgb(253,253,253)" stroke-width="1" opacity="1" d="M 130.5 50 L 137 50.5 L 130.5 51 L 130.5 50 Z " /><path fill="rgb(253,253,253)" stroke="rgb(253,253,253)" stroke-width="1" opacity="1" d="M 223.5 50 L 235 51.5 L 225.5 52 L 223.5 50 Z " /><path fill="rgb(253,253,253)" stroke="rgb(253,253,253)" stroke-width="1" opacity="1" d="M 139.5 51 L 142 51.5 L 139.5 52 L 139.5 51 Z " /><path fill="rgb(253,253,253)" stroke="rgb(253,253,253)" stroke-width="1" opacity="1" d="M 237.5 51 L 237 52.5 L 237 84.5 L 236 85.5 L 236.5 87 Q 233.7 85.8 236 84.5 L 236 52.5 L 237.5 51 Z " /><path fill="rgb(253,253,253)" stroke="rgb(253,253,253)" stroke-width="1" opacity="1" d="M 251.5 51 L 261 51.5 L 251.5 52 L 251.5 51 Z " /><path fill="rgb(253,253,253)" stroke="rgb(253,253,253)" stroke-width="1" opacity="1" d="M 161.5 52 L 162 55.5 L 161 55.5 L 161.5 52 Z " /><path fill="rgb(253,253,253)" stroke="rgb(253,253,253)" stroke-width="1" opacity="1" d="M 223.5 52 L 224 84.5 L 225 85.5 L 223 86.5 L 223 84.5 L 223.5 52 Z " /><path fill="rgb(253,253,253)" stroke="rgb(253,253,253)" stroke-width="1" opacity="1" d="M 93.5 53 L 94 57.5 L 93 57.5 L 93.5 53 Z " /><path fill="rgb(253,253,253)" stroke="rgb(253,253,253)" stroke-width="1" opacity="1" d="M 106.5 53 L 107.5 55 L 109 54.5 L 106.5 58 L 106.5 53 Z " /><path fill="rgb(253,253,253)" stroke="rgb(253,253,253)" stroke-width="1" opacity="1" d="M 35 54 L 37 54.5 L 35.5 57 L 35 54 Z " /><path fill="rgb(253,253,253)" stroke="rgb(253,253,253)" stroke-width="1" opacity="1" d="M 122.5 54 L 123 56.5 L 122 56.5 L 122.5 54 Z " /><path fill="rgb(253,253,253)" stroke="rgb(253,253,253)" stroke-width="1" opacity="1" d="M 336.5 55 L 337.5 57 L 336.5 55 Z " /><path fill="rgb(253,253,253)" stroke="rgb(253,253,253)" stroke-width="1" opacity="1" d="M 49.5 56 L 51 58.5 L 49 58.5 Q 49.8 60.8 47.5 60 L 48 58.5 L 49.5 56 Z " /><path fill="rgb(253,253,253)" stroke="rgb(253,253,253)" stroke-width="1" opacity="1" d="M 302.5 56 L 302 57.5 L 301.5 59 L 301 57.5 L 302.5 56 Z " /><path fill="rgb(253,253,253)" stroke="rgb(253,253,253)" stroke-width="1" opacity="1" d="M 121.5 58 L 122 60.5 L 121 60.5 L 121.5 58 Z " /><path fill="rgb(253,253,253)" stroke="rgb(253,253,253)" stroke-width="1" opacity="1" d="M 106.5 59 Q 108.8 58.3 108 60.5 L 108.5 62 L 107 61.5 Q 107.8 63.8 105.5 63 L 103 67 L 100.5 68 L 105 62.5 Q 104.3 60.3 106.5 61 L 106.5 59 Z " /><path fill="rgb(253,253,253)" stroke="rgb(253,253,253)" stroke-width="1" opacity="1" d="M 322.5 59 L 321.5 61 L 322.5 59 Z " /><path fill="rgb(253,253,253)" stroke="rgb(253,253,253)" stroke-width="1" opacity="1" d="M 50.5 60 L 52 62.5 L 50 63 L 50.5 60 Z " /><path fill="rgb(253,253,253)" stroke="rgb(253,253,253)" stroke-width="1" opacity="1" d="M 63.5 60 Q 66.1 59.2 65 62.5 L 64 62.5 L 63.5 60 Z " /><path fill="rgb(253,253,253)" stroke="rgb(253,253,253)" stroke-width="1" opacity="1" d="M 85.5 60 L 89 60.5 L 85.5 61 L 85.5 60 Z " /><path fill="rgb(253,253,253)" stroke="rgb(253,253,253)" stroke-width="1" opacity="1" d="M 34.5 61 L 34 62.5 Q 35.1 65.8 32.5 65 L 33 63.5 L 34.5 61 Z " /><path fill="rgb(253,253,253)" stroke="rgb(253,253,253)" stroke-width="1" opacity="1" d="M 178.5 61 L 179 65.5 L 178 65.5 L 178.5 61 Z " /><path fill="rgb(253,253,253)" stroke="rgb(253,253,253)" stroke-width="1" opacity="1" d="M 45.5 62 Q 46.8 64.8 51 64.5 L 47.5 65 L 45 64.5 L 45.5 62 Z " /><path fill="rgb(253,253,253)" stroke="rgb(253,253,253)" stroke-width="1" opacity="1" d="M 121.5 62 L 121 63.5 L 122 65.5 L 120 64.5 L 121.5 62 Z " /><path fill="rgb(253,253,253)" stroke="rgb(253,253,253)" stroke-width="1" opacity="1" d="M 135.5 62 L 143 62.5 L 135.5 63 L 135.5 62 Z " /><path fill="rgb(253,253,253)" stroke="rgb(253,253,253)" stroke-width="1" opacity="1" d="M 325.5 62 L 326.5 64 L 324.5 64 L 322 63.5 L 325.5 62 Z " /><path fill="rgb(253,253,253)" stroke="rgb(253,253,253)" stroke-width="1" opacity="1" d="M 412.5 62 L 415 62.5 L 412.5 63 L 412.5 62 Z " /><path fill="rgb(253,253,253)" stroke="rgb(253,253,253)" stroke-width="1" opacity="1" d="M 197.5 64 L 201 71 L 203 71.5 Q 200.5 73 204 74.5 L 207 81 L 209 81.5 L 209 83.5 L 210 85.5 L 208 84.5 L 197.5 66 L 196.5 85 L 196 65.5 L 197.5 64 Z " /><path fill="rgb(253,253,253)" stroke="rgb(253,253,253)" stroke-width="1" opacity="1" d="M 106.5 66 L 107.5 68 L 106.5 66 Z " /><path fill="rgb(253,253,253)" stroke="rgb(253,253,253)" stroke-width="1" opacity="1" d="M 132.5 66 L 133 75.5 L 134 76.5 L 131.5 77 L 126.5 78 L 127.5 76 L 132 76 L 132.5 66 Z " /><path fill="rgb(253,253,253)" stroke="rgb(253,253,253)" stroke-width="1" opacity="1" d="M 145.5 66 L 146 84.5 L 145 84.5 L 145.5 66 Z " /><path fill="rgb(253,253,253)" stroke="rgb(253,253,253)" stroke-width="1" opacity="1" d="M 301.5 66 L 302.5 68 L 301.5 66 Z " /><path fill="rgb(253,253,253)" stroke="rgb(253,253,253)" stroke-width="1" opacity="1" d="M 65.5 67 Q 68.1 66.2 67 69.5 L 67.5 71 Q 64.9 71.8 66 68.5 L 65.5 67 Z " /><path fill="rgb(253,253,253)" stroke="rgb(253,253,253)" stroke-width="1" opacity="1" d="M 32.5 68 L 32 69.5 L 30.5 74 L 30 72.5 L 32.5 68 Z " /><path fill="rgb(253,253,253)" stroke="rgb(253,253,253)" stroke-width="1" opacity="1" d="M 98.5 69 Q 100.8 68.3 100 70.5 L 110 86 L 108 85.5 L 109 84.5 L 106 81.5 L 98.5 69 Z " /><path fill="rgb(253,253,253)" stroke="rgb(253,253,253)" stroke-width="1" opacity="1" d="M 160.5 69 L 162.5 69 L 176 69.5 L 162 70 L 162 76 L 179.5 76 L 179.5 77 L 162.5 77 L 161.5 76 L 160 76.5 Q 162.3 75.3 161 70.5 L 160.5 69 Z " /><path fill="rgb(253,253,253)" stroke="rgb(253,253,253)" stroke-width="1" opacity="1" d="M 306.5 69 L 304.5 72 L 306.5 69 Z " /><path fill="rgb(253,253,253)" stroke="rgb(253,253,253)" stroke-width="1" opacity="1" d="M 83.5 71 L 86.5 72 Q 88.8 71.3 88 73.5 L 96 85.5 L 93 83.5 L 85.5 72 L 84.5 85 L 84 72.5 L 83.5 71 Z " /><path fill="rgb(253,253,253)" stroke="rgb(253,253,253)" stroke-width="1" opacity="1" d="M 122.5 71 L 124 73.5 L 122 74 L 122.5 71 Z " /><path fill="rgb(253,253,253)" stroke="rgb(253,253,253)" stroke-width="1" opacity="1" d="M 109.5 72 L 109 73.5 L 110 76.5 L 108 75.5 L 109.5 72 Z " /><path fill="rgb(253,253,253)" stroke="rgb(253,253,253)" stroke-width="1" opacity="1" d="M 341.5 72 Q 343.8 71.3 343 73.5 L 341.5 72 Z " /><path fill="rgb(253,253,253)" stroke="rgb(253,253,253)" stroke-width="1" opacity="1" d="M 67.5 74 L 71 80.5 L 70.5 83 L 69 79.5 L 67.5 74 Z " /><path fill="rgb(253,253,253)" stroke="rgb(253,253,253)" stroke-width="1" opacity="1" d="M 290.5 74 L 292 74.5 L 289.5 76 L 290.5 74 Z " /><path fill="rgb(253,253,253)" stroke="rgb(253,253,253)" stroke-width="1" opacity="1" d="M 29 75 L 31 75.5 L 30 79 L 28 78.5 L 29 75 Z " /><path fill="rgb(253,253,253)" stroke="rgb(253,253,253)" stroke-width="1" opacity="1" d="M 303.5 75 L 306 76.5 L 303 78.5 Q 305.3 79.8 302.5 81 L 302.5 79 L 301 78.5 L 304 76.5 L 303.5 75 Z " /><path fill="rgb(253,253,253)" stroke="rgb(253,253,253)" stroke-width="1" opacity="1" d="M 319.5 75 L 329 75.5 L 319.5 76 L 319.5 75 Z " /><path fill="rgb(253,253,253)" stroke="rgb(253,253,253)" stroke-width="1" opacity="1" d="M 44.5 76 L 54 76.5 L 44.5 77 L 44.5 76 Z " /><path fill="rgb(253,253,253)" stroke="rgb(253,253,253)" stroke-width="1" opacity="1" d="M 281.5 76 L 286 76.5 L 281.5 77 L 281.5 76 Z " /><path fill="rgb(253,253,253)" stroke="rgb(253,253,253)" stroke-width="1" opacity="1" d="M 317.5 77 L 316.5 79 L 317.5 77 Z " /><path fill="rgb(253,253,253)" stroke="rgb(253,253,253)" stroke-width="1" opacity="1" d="M 55.5 78 L 57 80.5 L 55 79.5 L 55.5 78 Z " /><path fill="rgb(253,253,253)" stroke="rgb(253,253,253)" stroke-width="1" opacity="1" d="M 110.5 78 L 117.5 86 L 112 81.5 L 110.5 78 Z " /><path fill="rgb(253,253,253)" stroke="rgb(253,253,253)" stroke-width="1" opacity="1" d="M 42.5 79 L 43 82 L 41 81.5 L 42.5 79 Z " /><path fill="rgb(253,253,253)" stroke="rgb(253,253,253)" stroke-width="1" opacity="1" d="M 330.5 80 L 331.5 82 L 330.5 80 Z " /><path fill="rgb(253,253,253)" stroke="rgb(253,253,253)" stroke-width="1" opacity="1" d="M 386.5 84 L 385.5 86 L 386.5 84 Z " /><path fill="rgb(253,253,253)" stroke="rgb(253,253,253)" stroke-width="1" opacity="1" d="M 26.5 85 L 29 86.5 L 27.5 86 L 26.5 85 Z " /><path fill="rgb(253,253,253)" stroke="rgb(253,253,253)" stroke-width="1" opacity="1" d="M 414.5 85 L 415.5 87 L 414.5 85 Z " /><path fill="rgb(253,253,253)" stroke="rgb(253,253,253)" stroke-width="1" opacity="1" d="M 119.5 86 L 123 87.5 L 121.5 88 L 119.5 86 Z " /><path fill="rgb(253,253,253)" stroke="rgb(253,253,253)" stroke-width="1" opacity="1" d="M 131.5 87 L 135 87.5 L 131.5 88 L 131.5 87 Z " /><path fill="rgb(253,253,253)" stroke="rgb(253,253,253)" stroke-width="1" opacity="1" d="M 29.5 88 L 38 88.5 L 29.5 89 L 29.5 88 Z " /><path fill="rgb(253,253,253)" stroke="rgb(253,253,253)" stroke-width="1" opacity="1" d="M 60.5 88 L 69 88.5 L 60.5 89 L 60.5 88 Z " /><path fill="rgb(253,253,253)" stroke="rgb(253,253,253)" stroke-width="1" opacity="1" d="M 73.5 88 L 82 88.5 L 73.5 89 L 73.5 88 Z " /><path fill="rgb(253,253,253)" stroke="rgb(253,253,253)" stroke-width="1" opacity="1" d="M 98.5 88 L 108 88.5 L 98.5 89 L 98.5 88 Z " /><path fill="rgb(253,253,253)" stroke="rgb(253,253,253)" stroke-width="1" opacity="1" d="M 124.5 88 L 129 88.5 L 124.5 89 L 124.5 88 Z " /><path fill="rgb(253,253,253)" stroke="rgb(253,253,253)" stroke-width="1" opacity="1" d="M 138.5 88 L 143 88.5 L 138.5 89 L 138.5 88 Z " /><path fill="rgb(253,253,253)" stroke="rgb(253,253,253)" stroke-width="1" opacity="1" d="M 150.5 88 L 180 88.5 L 150.5 89 L 150.5 88 Z " /><path fill="rgb(253,253,253)" stroke="rgb(253,253,253)" stroke-width="1" opacity="1" d="M 185.5 88 L 194 88.5 L 185.5 89 L 185.5 88 Z " /><path fill="rgb(253,253,253)" stroke="rgb(253,253,253)" stroke-width="1" opacity="1" d="M 212.5 88 L 222 88.5 L 212.5 89 L 212.5 88 Z " /><path fill="rgb(253,253,253)" stroke="rgb(253,253,253)" stroke-width="1" opacity="1" d="M 238.5 88 L 248 88.5 L 238.5 89 L 238.5 88 Z " /><path fill="rgb(253,253,253)" stroke="rgb(253,253,253)" stroke-width="1" opacity="1" d="M 278.5 88 L 284 88.5 L 278.5 89 L 278.5 88 Z " /><path fill="rgb(1,86,50)" stroke="rgb(1,86,50)" stroke-width="1" opacity="1" d="M 274.5 41 Q 292.3 38.3 299 46.5 Q 301.3 49.7 300 56.5 L 296.5 61 L 294 62.5 L 300 66.5 L 302 73.5 Q 301.1 80.1 296.5 83 L 291.5 85 L 276.5 86 L 275.5 85 L 269 85 L 269 42.5 Q 269 41.5 273.5 42 L 274.5 41 Z M 281 47 L 280 48 L 278 49 L 278 60 Q 286 61 291 58 Q 293 56 292 51 Q 289 46 281 47 Z M 278 66 L 278 79 L 290 79 L 294 73 L 293 70 L 289 66 L 278 66 Z " /><path fill="rgb(1,86,50)" stroke="rgb(1,86,50)" stroke-width="1" opacity="1" d="M 317 41 L 329.5 41 L 331 42.5 L 343 85 L 335.5 85 L 334 83.5 Q 333.8 76.8 330.5 73 L 316.5 73 L 315 74.5 L 313 85 L 304 84.5 L 317 41 Z M 324 47 L 318 65 L 319 66 L 329 66 L 324 47 Z " /><path fill="rgb(1,86,50)" stroke="rgb(1,86,50)" stroke-width="1" opacity="1" d="M 348 41 L 356.5 41 L 357 42.5 L 374.5 70 L 375 41 L 382.5 41 L 383 41.5 L 383 85 L 374.5 85 L 373 83.5 L 356.5 56 L 356 85 L 348.5 85 L 348 84.5 L 348 41 Z " /><path fill="rgb(1,86,50)" stroke="rgb(1,86,50)" stroke-width="1" opacity="1" d="M 391 41 L 400 41 L 400 58.5 L 405 59 L 416.5 41 L 425 41.5 L 413 59.5 L 412 63.5 L 426 84.5 L 416 85 L 404.5 67 Q 400 66.5 400 67.5 L 400 85 L 391 85 L 391 41 Z " /><path fill="rgb(14,186,122)" stroke="rgb(14,186,122)" stroke-width="1" opacity="1" d="M 42 41 L 55.5 41 L 56 42.5 L 69 85.5 L 60 86 L 57 74 L 41.5 74 L 41 76.5 L 37.5 86 L 30 86 L 30 82.5 L 42 41 Z M 48 48 L 44 64 L 44 67 L 54 67 L 54 63 L 50 51 Q 51 47 48 48 Z " /><path fill="rgb(14,186,122)" stroke="rgb(14,186,122)" stroke-width="1" opacity="1" d="M 77.5 41 Q 89 39.5 96.5 42 L 103 47.5 L 104 49.5 L 104 60.5 L 98.5 67 L 96 68.5 L 107 86 L 98.5 86 L 96 83.5 L 86.5 69 Q 82.8 68.3 82 70.5 L 82 86 L 73 86 L 73 42.5 L 76.5 42 L 77.5 41 Z M 82 48 L 82 62 L 84 63 L 93 62 L 96 59 L 95 51 L 92 48 L 82 48 Z " /><path fill="rgb(14,186,122)" stroke="rgb(14,186,122)" stroke-width="1" opacity="1" d="M 125.5 41 L 139.5 41 L 142 42 L 142 49 L 138.5 49 Q 136.8 46.3 130.5 48 Q 123.1 49.1 120 54.5 Q 117.4 60.4 119 70.5 L 124.5 78 L 135 79 L 135 65 L 143 65 L 143 85.5 Q 142.9 86.6 137.5 86 Q 135.8 88.7 129.5 87 L 118.5 84 L 112 77.5 L 109 67.5 L 109 60.5 L 111 52.5 L 116.5 45 L 125.5 41 Z " /><path fill="rgb(14,186,122)" stroke="rgb(14,186,122)" stroke-width="1" opacity="1" d="M 151 41 L 178.5 41 L 179 41.5 L 179 49 L 159 49 L 159 59 L 176 59 L 176 67 L 159 67 L 159 77.5 L 160.5 79 L 180 79 L 180 85.5 L 179.5 86 L 151 86 L 151 41 Z " /><path fill="rgb(14,186,122)" stroke="rgb(14,186,122)" stroke-width="1" opacity="1" d="M 186 41 L 194.5 41 L 195 42.5 L 212.5 71 L 213 41 L 220.5 41 L 221 41.5 L 221 86 L 212.5 86 L 211 84.5 L 194.5 57 L 194 86 L 186.5 86 L 186 85.5 L 186 41 Z " /><path fill="rgb(14,186,122)" stroke="rgb(14,186,122)" stroke-width="1" opacity="1" d="M 226 41 L 260.5 41 L 261 41.5 L 261 49 L 248 49 L 248 85.5 L 247.5 86 L 239 86 L 239 49.5 L 238.5 49 L 226 49 L 226 41 Z " /><path fill="rgb(14,186,122)" stroke="rgb(14,186,122)" stroke-width="1" opacity="1" d="M 271.5 41 L 274 41.5 L 271.5 42 L 271.5 41 Z " /><path fill="rgb(14,186,122)" stroke="rgb(14,186,122)" stroke-width="1" opacity="1" d="M 383.5 42 L 384 84.5 L 383 84.5 L 383.5 42 Z " /><path fill="rgb(14,186,122)" stroke="rgb(14,186,122)" stroke-width="1" opacity="1" d="M 280.5 47 L 287 47.5 L 280.5 48 L 280.5 47 Z " /><path fill="rgb(14,186,122)" stroke="rgb(14,186,122)" stroke-width="1" opacity="1" d="M 356.5 56 L 357.5 58 L 356.5 56 Z " /><path fill="rgb(14,186,122)" stroke="rgb(14,186,122)" stroke-width="1" opacity="1" d="M 278.5 59 L 285 59.5 L 278.5 60 L 278.5 59 Z " /><path fill="rgb(14,186,122)" stroke="rgb(14,186,122)" stroke-width="1" opacity="1" d="M 286.5 66 L 289 66.5 L 286.5 67 L 286.5 66 Z " /><path fill="rgb(14,186,122)" stroke="rgb(14,186,122)" stroke-width="1" opacity="1" d="M 316.5 73 L 330.5 73 L 332 74.5 L 330.5 74 L 316.5 74 L 315.5 75 L 316.5 73 Z " /><path fill="rgb(14,186,122)" stroke="rgb(14,186,122)" stroke-width="1" opacity="1" d="M 334.5 84 L 335.5 86 L 334.5 84 Z " /><path fill="rgb(14,186,122)" stroke="rgb(14,186,122)" stroke-width="1" opacity="1" d="M 272.5 85 L 276 85.5 L 272.5 86 L 272.5 85 Z " /><path fill="rgb(14,186,122)" stroke="rgb(14,186,122)" stroke-width="1" opacity="1" d="M 285.5 85 L 288 85.5 L 285.5 86 L 285.5 85 Z " /></svg>